<svg width="586" height="214" viewBox="0 0 586 214" fill="none" xmlns="http://www.w3.org/2000/svg">
<path d="M28.5547 133.844V125.445C28.5547 120.854 27.8548 117.243 26.4551 114.611C25.1113 111.98 21.8359 106.409 16.6289 97.8984C11.4779 89.332 7.95052 83.0892 6.04688 79.1699C4.19922 75.1947 3.27539 69.0358 3.27539 60.6934V51.623C3.27539 44.2884 4.45117 39.3053 6.80273 36.6738C9.1543 34.0423 13.6615 32.7266 20.3242 32.7266H26.623C33.2858 32.7266 37.765 34.0423 40.0605 36.6738C42.3561 39.3053 43.5039 44.2884 43.5039 51.623L29.3945 71.0234V53.7227C29.3945 50.9792 29.1426 49.1595 28.6387 48.2637C28.1348 47.3118 26.791 46.8359 24.6074 46.8359H23.0117C20.9961 46.8359 19.6803 47.3118 19.0645 48.2637C18.5046 49.1595 18.2246 50.8672 18.2246 53.3867V61.3652C18.2246 67.0762 18.8685 71.2474 20.1562 73.8789C21.5 76.5104 24.7754 82.1094 29.9824 90.6758C35.2454 99.1862 38.8008 105.429 40.6484 109.404C42.5521 113.324 43.5039 118.895 43.5039 126.117V135.943C43.5039 143.278 42.3561 148.261 40.0605 150.893C37.765 153.524 33.2858 154.84 26.623 154.84H20.3242C13.6615 154.84 9.1543 153.524 6.80273 150.893C4.45117 148.261 3.27539 141.598 3.27539 130.904L17.3848 115.451V133.844C17.3848 136.643 17.6367 138.491 18.1406 139.387C18.6445 140.283 19.9883 140.73 22.1719 140.73H23.7676C25.7832 140.73 27.071 140.283 27.6309 139.387C28.2467 138.491 28.5547 136.643 28.5547 133.844ZM59.078 34.0703H88.5565L91.8319 34.6582C99.4465 37.7936 103.254 43.0566 103.254 50.4473V87.5684C103.254 92.9434 101.434 97.4785 97.7948 101.174C95.5552 103.749 88.2765 105.037 75.9588 105.037H75.4549C75.4549 105.429 75.6229 105.961 75.9588 106.633C75.6229 107.305 75.4549 108.033 75.4549 108.816V144.342L75.9588 149.801C75.6229 149.801 75.4549 149.969 75.4549 150.305L75.9588 151.396C75.9588 152.124 75.5949 152.488 74.867 152.488H59.078V34.0703ZM76.5467 49.3555C75.9308 49.3555 75.5669 49.7194 75.4549 50.4473V89.1641C75.4549 89.8919 75.8189 90.2559 76.5467 90.2559H80.9139C84.8892 90.2559 86.8768 88.6322 86.8768 85.3848V54.3105C86.8768 51.5111 85.2531 49.8594 82.0057 49.3555H76.5467ZM119.5 111.168C119.5 105.681 119.5 99.7461 119.5 93.3633C119.5 86.9805 119.5 81.0456 119.5 75.5586V34.0703L135.037 33.5664C134.645 80.4857 134.449 105.373 134.449 108.229V148.793L118.912 163.238L119.5 111.168ZM150.947 154V33.5664H175.722C182.385 33.5664 186.864 34.9102 189.16 37.5977C191.455 40.2292 192.603 45.2122 192.603 52.5469V135.104C192.603 142.438 191.455 147.421 189.16 150.053C186.864 152.684 182.385 154 175.722 154H150.947ZM165.896 139.891H172.783C174.854 139.891 176.17 139.443 176.73 138.547C177.346 137.595 177.654 135.747 177.654 133.004V54.5625C177.654 51.819 177.346 49.9993 176.73 49.1035C176.17 48.1517 174.854 47.6758 172.783 47.6758H165.896V139.891ZM221.111 47.6758V84.209H234.884L228.165 98.2344H221.111V139.891H237.992V154H206.161V33.5664H237.992V47.6758H221.111ZM291.443 111.168L291.946 163.238L276.493 148.793V108.229C276.493 105.373 276.073 103.357 275.234 102.182C274.45 100.95 272.91 100.334 270.614 100.334H264.736V154H249.786V33.5664H274.394C281.057 33.5664 285.564 34.9102 287.915 37.5977C290.267 40.2292 291.443 45.2122 291.443 52.5469V75.5586C291.443 81.0456 290.799 85.1608 289.511 87.9043C288.279 90.5918 286.096 92.3835 282.96 93.2793C286.096 94.1751 288.279 96.0228 289.511 98.8223C290.799 101.566 291.443 105.681 291.443 111.168ZM276.493 79.3379V54.5625C276.493 51.819 276.185 49.9993 275.57 49.1035C275.01 48.1517 273.694 47.6758 271.622 47.6758H264.736V86.2246H271.622C273.694 86.2246 275.01 85.7767 275.57 84.8809C276.185 83.929 276.493 82.0814 276.493 79.3379ZM334.144 93.2793V108.732H302.985V93.2793H334.144ZM365.759 53.7227V133.844C365.759 136.643 366.039 138.491 366.599 139.387C367.214 140.283 368.558 140.73 370.63 140.73H372.645C374.717 140.73 376.033 140.283 376.593 139.387C377.209 138.491 377.516 136.643 377.516 133.844V102.77L391.542 122.506C391.542 138.799 390.366 148.261 388.015 150.893C385.719 153.524 381.24 154.84 374.577 154.84H367.69C361.028 154.84 356.52 153.524 354.169 150.893C351.817 148.261 350.641 143.278 350.641 135.943V51.623C350.641 44.2884 351.817 39.3053 354.169 36.6738C356.52 34.0423 361.028 32.7266 367.69 32.7266H374.577C381.24 32.7266 385.719 34.0423 388.015 36.6738C390.366 39.3053 391.542 44.2884 391.542 51.623L377.516 71.2754V53.7227C377.516 50.9792 377.209 49.1595 376.593 48.2637C376.033 47.3118 374.717 46.8359 372.645 46.8359H370.63C368.558 46.8359 367.214 47.3118 366.599 48.2637C366.039 49.1595 365.759 50.9792 365.759 53.7227ZM446.337 111.168L446.841 163.238L431.387 148.793V108.229C431.387 105.373 430.967 103.357 430.128 102.182C429.344 100.95 427.804 100.334 425.509 100.334H419.63V154H404.68V33.5664H429.288C435.951 33.5664 440.458 34.9102 442.809 37.5977C445.161 40.2292 446.337 45.2122 446.337 52.5469V75.5586C446.337 81.0456 445.693 85.1608 444.405 87.9043C443.173 90.5918 440.99 92.3835 437.854 93.2793C440.99 94.1751 443.173 96.0228 444.405 98.8223C445.693 101.566 446.337 105.681 446.337 111.168ZM431.387 79.3379V54.5625C431.387 51.819 431.079 49.9993 430.464 49.1035C429.904 48.1517 428.588 47.6758 426.516 47.6758H419.63V86.2246H426.516C428.588 86.2246 429.904 85.7767 430.464 84.8809C431.079 83.929 431.387 82.0814 431.387 79.3379ZM486.266 154L483.243 125.277L479.799 136.783H471.653L469.889 154H456.452L468.545 33.5664H489.122L501.383 154H486.266ZM473.669 114.275L472.997 122.674H483.159L482.487 114.779C480.303 90.3678 478.792 68.6439 477.952 49.6074C477.28 66.4603 475.852 88.0163 473.669 114.275ZM527.371 47.6758V85.8887H541.313L534.342 98.3184H527.371V154H512.422V33.5664H543.58V47.6758H527.371ZM574.86 154H559.91V47.5078H549.916V33.5664H585.022V47.5078H574.86V154Z" fill="url(#paint0_linear_1_5)"/>
<path d="M191.37 185.04C191.43 184.86 191.4 184.83 191.28 184.95C191.22 185.01 191.25 185.04 191.37 185.04C191.25 185.16 191.1 185.22 190.92 185.22C190.74 185.22 190.65 185.37 190.65 185.67C190.29 185.61 189.99 185.76 189.75 186.12C189.51 186.42 189.21 186.51 188.85 186.39C188.73 186.45 188.7 186.51 188.76 186.57C188.88 186.57 188.91 186.63 188.85 186.75C188.25 186.81 187.77 186.99 187.41 187.29C187.11 187.53 186.69 187.77 186.15 188.01V187.92C186.21 187.86 186.24 187.8 186.24 187.74C186.18 187.74 186.12 187.8 186.06 187.92C186 187.98 186.03 188.01 186.15 188.01C186.09 188.13 186.06 188.19 186.06 188.19C185.4 188.37 184.98 188.58 184.8 188.82C184.2 188.88 183.63 189.06 183.09 189.36C182.55 189.66 182.07 189.96 181.65 190.26C181.11 190.32 180.51 190.44 179.85 190.62C179.19 190.8 178.5 190.95 177.78 191.07C177.06 191.13 176.34 191.13 175.62 191.07C174.96 191.01 174.36 190.8 173.82 190.44C173.7 190.5 173.64 190.56 173.64 190.62C173.58 190.68 173.49 190.68 173.37 190.62C173.37 190.44 173.34 190.32 173.28 190.26C172.44 189.78 171.75 189.24 171.21 188.64C170.61 188.04 169.98 187.41 169.32 186.75C169.32 186.63 169.35 186.63 169.41 186.75C169.47 186.81 169.56 186.81 169.68 186.75C169.68 186.57 169.62 186.45 169.5 186.39C169.38 186.27 169.29 186.15 169.23 186.03C169.11 186.03 169.08 186.12 169.14 186.3C169.14 186.42 169.08 186.42 168.96 186.3C168.78 186 168.66 185.7 168.6 185.4C168.48 185.04 168.36 184.71 168.24 184.41C168.3 182.85 168.51 181.47 168.87 180.27C169.17 179.01 169.59 177.87 170.13 176.85C170.61 175.77 171.15 174.75 171.75 173.79C172.35 172.83 172.95 171.84 173.55 170.82V171.09C173.61 171.09 173.73 171.03 173.91 170.91C174.03 170.79 173.97 170.7 173.73 170.64C173.85 170.52 173.94 170.43 174 170.37C174.12 170.31 174.24 170.22 174.36 170.1C175.2 168.54 176.16 167.13 177.24 165.87C178.32 164.55 179.37 163.2 180.39 161.82C180.45 161.82 180.48 161.88 180.48 162C180.48 162.06 180.54 162.06 180.66 162C180.78 161.94 180.81 161.79 180.75 161.55C180.69 161.31 180.81 161.16 181.11 161.1C181.11 161.28 181.05 161.4 180.93 161.46C180.87 161.46 180.87 161.52 180.93 161.64C181.05 161.64 181.11 161.61 181.11 161.55C181.17 161.43 181.26 161.31 181.38 161.19C181.38 161.13 181.35 161.13 181.29 161.19C181.23 161.19 181.17 161.16 181.11 161.1C181.17 161.04 181.2 160.98 181.2 160.92C181.26 160.86 181.35 160.8 181.47 160.74V161.01C181.59 160.89 181.71 160.8 181.83 160.74C182.01 160.68 182.16 160.59 182.28 160.47C182.34 160.35 182.31 160.26 182.19 160.2C182.13 160.14 182.13 160.05 182.19 159.93C182.49 159.93 182.67 159.84 182.73 159.66C182.85 159.48 182.88 159.3 182.82 159.12C183 159.42 183.12 159.48 183.18 159.3C183.24 159.06 183.42 158.94 183.72 158.94V159.12C183.48 159.24 183.27 159.42 183.09 159.66C182.97 159.84 182.82 159.99 182.64 160.11C182.88 160.23 183.09 160.17 183.27 159.93C183.45 159.63 183.6 159.36 183.72 159.12C183.78 159.12 183.81 159.12 183.81 159.12C183.81 159.06 183.84 159.03 183.9 159.03C183.9 159.09 183.84 159.06 183.72 158.94C184.02 158.46 184.35 158.04 184.71 157.68C185.07 157.26 185.49 156.99 185.97 156.87C186.27 156.75 186.51 156.54 186.69 156.24C186.99 156.12 187.23 155.94 187.41 155.7C187.35 155.58 187.29 155.58 187.23 155.7C187.17 155.82 187.08 155.82 186.96 155.7C187.26 155.4 187.59 155.07 187.95 154.71C188.31 154.35 188.73 154.17 189.21 154.17C189.33 154.11 189.33 154.05 189.21 153.99C189.15 153.93 189.18 153.84 189.3 153.72C189.48 153.72 189.51 153.75 189.39 153.81C189.33 153.87 189.36 153.93 189.48 153.99C189.66 153.93 189.78 153.84 189.84 153.72C189.96 153.6 190.14 153.51 190.38 153.45C190.44 153.33 190.41 153.27 190.29 153.27C190.23 153.21 190.23 153.12 190.29 153C190.41 153 190.47 153.06 190.47 153.18C190.47 153.3 190.5 153.42 190.56 153.54C189.72 154.08 188.94 154.65 188.22 155.25C187.56 155.85 186.9 156.48 186.24 157.14C186.84 156.84 187.41 156.42 187.95 155.88C188.49 155.28 189.09 154.8 189.75 154.44C190.05 154.08 190.41 153.78 190.83 153.54C191.31 153.3 191.7 153 192 152.64C192.48 152.52 192.84 152.34 193.08 152.1C193.38 151.8 193.77 151.59 194.25 151.47C193.95 151.41 193.56 151.53 193.08 151.83C192.6 152.07 192.24 152.34 192 152.64C191.76 152.64 191.49 152.79 191.19 153.09C190.95 153.33 190.77 153.24 190.65 152.82C190.83 152.94 190.98 152.88 191.1 152.64C191.22 152.4 191.43 152.25 191.73 152.19C191.61 152.01 191.58 151.89 191.64 151.83C191.76 151.95 191.91 151.98 192.09 151.92C192.45 151.68 192.84 151.5 193.26 151.38C193.68 151.26 194.01 151.05 194.25 150.75C194.37 150.87 194.49 150.87 194.61 150.75C194.73 150.57 194.85 150.42 194.97 150.3C195.39 150.42 195.93 150.39 196.59 150.21C197.31 149.97 198 150 198.66 150.3C198.72 150.3 198.72 150.27 198.66 150.21C199.14 150.15 199.5 150.27 199.74 150.57C200.04 150.81 200.49 150.99 201.09 151.11C201.21 151.41 201.36 151.65 201.54 151.83C201.72 152.01 201.84 152.25 201.9 152.55C202.14 152.79 202.38 153.03 202.62 153.27C202.86 153.45 203.04 153.69 203.16 153.99C203.04 154.71 202.59 155.4 201.81 156.06C201.09 156.72 200.37 156.9 199.65 156.6C199.53 156.54 199.44 156.45 199.38 156.33C199.32 156.15 199.17 156.09 198.93 156.15C198.93 155.91 198.87 155.76 198.75 155.7C198.63 155.64 198.63 155.46 198.75 155.16C198.45 155.22 198.15 155.28 197.85 155.34C197.61 155.34 197.37 155.4 197.13 155.52C194.67 156.6 192.57 157.95 190.83 159.57C189.15 161.19 187.5 162.87 185.88 164.61V164.88C185.4 165.42 184.92 165.99 184.44 166.59C184.02 167.13 183.57 167.64 183.09 168.12C183.15 168.24 183.12 168.33 183 168.39C182.94 168.39 182.94 168.45 183 168.57C182.58 168.93 182.25 169.35 182.01 169.83C181.77 170.25 181.47 170.61 181.11 170.91C182.67 170.61 184.05 170.19 185.25 169.65C186.51 169.11 187.92 168.75 189.48 168.57C190.56 168.15 191.58 167.88 192.54 167.76C193.5 167.64 194.58 167.37 195.78 166.95C196.2 167.07 196.53 167.07 196.77 166.95C197.01 166.77 197.37 166.71 197.85 166.77L198.12 166.5C199.02 166.5 200.1 166.35 201.36 166.05C202.62 165.75 203.88 165.54 205.14 165.42C205.08 165.66 205.11 165.78 205.23 165.78C205.41 165.78 205.5 165.84 205.5 165.96C205.98 166.08 206.31 166.29 206.49 166.59C206.73 166.89 207.09 167.07 207.57 167.13C207.93 167.73 208.29 168.33 208.65 168.93C209.07 169.47 209.43 170.04 209.73 170.64C209.49 170.88 209.28 171.12 209.1 171.36C208.92 171.54 208.65 171.66 208.29 171.72C208.17 171.78 208.11 171.87 208.11 171.99C208.17 172.05 208.17 172.08 208.11 172.08C205.47 174.12 202.95 176.25 200.55 178.47C198.15 180.69 195.48 182.64 192.54 184.32C192.42 184.44 192.36 184.53 192.36 184.59C192.12 184.59 192 184.56 192 184.5C191.94 184.74 191.79 184.92 191.55 185.04H191.37ZM197.58 150.39C197.46 150.51 197.4 150.54 197.4 150.48C197.52 150.48 197.58 150.45 197.58 150.39ZM194.79 150.84C194.91 150.78 195 150.75 195.06 150.75C195.18 150.75 195.24 150.69 195.24 150.57C194.88 150.57 194.73 150.66 194.79 150.84ZM194.34 151.38C194.4 151.56 194.43 151.56 194.43 151.38C194.43 151.2 194.4 151.2 194.34 151.38ZM188.85 154.44C188.73 154.56 188.67 154.59 188.67 154.53C188.79 154.53 188.85 154.5 188.85 154.44ZM188.4 154.71C188.28 154.77 188.25 154.83 188.31 154.89C188.37 154.89 188.4 154.83 188.4 154.71ZM185.25 157.59C185.13 157.65 185.1 157.71 185.16 157.77C185.22 157.77 185.25 157.71 185.25 157.59C185.43 157.59 185.58 157.47 185.7 157.23C185.58 157.23 185.49 157.29 185.43 157.41C185.37 157.47 185.31 157.53 185.25 157.59ZM185.43 158.04H185.34C185.34 158.16 185.28 158.22 185.16 158.22C185.1 158.22 185.07 158.28 185.07 158.4C184.77 158.52 184.62 158.67 184.62 158.85H184.44V159.03C184.32 159.03 184.2 159.09 184.08 159.21C184.02 159.27 184.05 159.33 184.17 159.39C184.17 159.27 184.2 159.21 184.26 159.21C184.38 159.21 184.44 159.15 184.44 159.03C184.56 159.09 184.62 159.03 184.62 158.85C184.8 158.73 184.95 158.58 185.07 158.4C185.19 158.46 185.31 158.34 185.43 158.04C185.61 158.04 185.73 157.98 185.79 157.86C185.85 157.68 185.94 157.53 186.06 157.41C185.64 157.53 185.43 157.74 185.43 158.04ZM184.17 158.85C184.29 158.67 184.41 158.52 184.53 158.4C184.71 158.28 184.86 158.13 184.98 157.95C184.74 158.01 184.53 158.16 184.35 158.4C184.17 158.58 184.11 158.73 184.17 158.85ZM183.09 160.38C183.15 160.56 183.18 160.56 183.18 160.38C183.24 160.2 183.21 160.2 183.09 160.38ZM194.97 173.52C195.33 173.4 195.69 173.25 196.05 173.07C196.41 172.89 196.71 172.62 196.95 172.26C196.47 172.38 196.08 172.47 195.78 172.53C195.48 172.59 195.12 172.59 194.7 172.53C194.82 172.35 195 172.29 195.24 172.35C195.54 172.41 195.72 172.32 195.78 172.08C195.54 171.96 195.27 171.99 194.97 172.17C194.73 172.29 194.4 172.32 193.98 172.26C193.86 172.14 193.8 172.08 193.8 172.08C193.86 172.02 193.92 171.9 193.98 171.72C193.86 171.78 193.74 171.84 193.62 171.9C193.5 171.9 193.47 171.99 193.53 172.17C193.53 172.35 193.59 172.38 193.71 172.26C193.83 172.14 193.86 172.17 193.8 172.35C193.74 172.47 193.62 172.53 193.44 172.53C193.32 172.47 193.26 172.38 193.26 172.26C193.26 172.56 193.17 172.65 192.99 172.53C192.69 172.29 192.36 172.17 192 172.17C191.7 172.17 191.37 172.23 191.01 172.35C190.65 172.47 190.29 172.59 189.93 172.71C189.57 172.77 189.24 172.74 188.94 172.62C188.88 172.5 188.88 172.44 188.94 172.44C189.06 172.38 189.18 172.29 189.3 172.17V172.53C189.42 172.53 189.54 172.56 189.66 172.62C189.78 172.62 189.87 172.56 189.93 172.44C189.87 172.26 189.6 172.11 189.12 171.99C188.64 172.17 188.07 172.35 187.41 172.53C186.81 172.65 186.27 172.71 185.79 172.71C185.73 172.65 185.73 172.56 185.79 172.44C185.85 172.32 185.82 172.26 185.7 172.26C185.7 172.44 185.61 172.59 185.43 172.71C185.31 172.77 185.22 172.77 185.16 172.71C185.1 172.59 185.13 172.53 185.25 172.53C185.37 172.47 185.37 172.38 185.25 172.26C184.59 172.26 184.02 172.38 183.54 172.62C183.06 172.8 182.4 172.89 181.56 172.89C181.56 172.77 181.53 172.71 181.47 172.71C181.47 172.71 181.47 172.65 181.47 172.53C181.23 172.47 181.11 172.53 181.11 172.71C181.11 172.83 181.02 172.86 180.84 172.8C180.78 172.68 180.78 172.62 180.84 172.62C180.96 172.62 181.02 172.56 181.02 172.44C180.84 172.5 180.75 172.5 180.75 172.44C180.75 172.32 180.69 172.23 180.57 172.17C180.57 172.47 180.51 172.65 180.39 172.71C180.27 172.59 180.18 172.53 180.12 172.53C180.18 172.89 180.06 173.01 179.76 172.89C178.68 174.87 177.57 176.85 176.43 178.83C175.35 180.81 174.57 183 174.09 185.4C175.71 185.16 177.18 184.8 178.5 184.32C179.82 183.78 181.05 183.18 182.19 182.52C183.39 181.8 184.56 181.08 185.7 180.36C186.84 179.64 188.04 178.98 189.3 178.38C190.38 177.54 191.49 176.76 192.63 176.04C193.83 175.26 194.94 174.36 195.96 173.34C195.78 173.4 195.6 173.46 195.42 173.52C195.3 173.52 195.15 173.52 194.97 173.52ZM193.08 171.99H193.26V171.81H193.08V171.99ZM192.63 172.17C192.63 172.05 192.69 172.02 192.81 172.08C192.99 172.14 193.05 172.08 192.99 171.9C192.87 171.9 192.75 171.93 192.63 171.99C192.51 172.05 192.51 172.11 192.63 172.17ZM195.87 172.17H196.23C196.23 172.05 196.14 171.99 195.96 171.99C195.84 171.93 195.81 171.99 195.87 172.17ZM196.59 171.99C196.59 171.93 196.56 171.9 196.5 171.9C196.44 171.9 196.41 171.93 196.41 171.99C196.47 171.99 196.5 172.02 196.5 172.08C196.5 172.14 196.53 172.11 196.59 171.99ZM185.88 172.08C185.94 172.26 185.97 172.26 185.97 172.08C185.97 171.9 185.94 171.9 185.88 172.08ZM190.83 172.26C190.77 172.14 190.8 172.11 190.92 172.17C191.1 172.23 191.16 172.17 191.1 171.99C190.98 171.93 190.86 171.96 190.74 172.08C190.68 172.14 190.71 172.2 190.83 172.26ZM190.02 172.44C190.14 172.38 190.26 172.35 190.38 172.35C190.56 172.35 190.65 172.26 190.65 172.08C190.41 172.14 190.23 172.17 190.11 172.17C190.05 172.11 190.02 172.2 190.02 172.44ZM181.74 172.44V172.62C181.86 172.74 181.92 172.74 181.92 172.62C181.98 172.44 181.95 172.35 181.83 172.35C181.83 172.47 181.8 172.5 181.74 172.44ZM196.23 173.16C196.29 173.34 196.32 173.34 196.32 173.16C196.32 172.98 196.29 172.98 196.23 173.16ZM177.33 175.86C177.45 176.04 177.48 176.07 177.42 175.95C177.42 175.77 177.39 175.74 177.33 175.86ZM174.99 181.08C175.05 181.26 175.08 181.26 175.08 181.08C175.08 180.9 175.05 180.9 174.99 181.08ZM173.91 184.05C173.97 184.23 174 184.23 174 184.05C174.06 183.87 174.03 183.87 173.91 184.05ZM189.66 185.94C189.54 186.06 189.48 186.09 189.48 186.03C189.6 186.03 189.66 186 189.66 185.94ZM194.25 150.75C194.13 150.75 194.04 150.78 193.98 150.84C193.92 150.9 193.83 150.9 193.71 150.84C193.77 150.78 193.95 150.69 194.25 150.57V150.75ZM193.71 150.84C193.71 151.14 193.56 151.2 193.26 151.02C193.38 150.9 193.53 150.84 193.71 150.84ZM192.81 151.2C192.81 151.02 192.84 150.99 192.9 151.11C193.02 151.23 192.99 151.26 192.81 151.2ZM192.81 151.2C192.81 151.32 192.78 151.38 192.72 151.38C192.66 151.38 192.63 151.41 192.63 151.47C192.51 151.47 192.48 151.41 192.54 151.29C192.6 151.17 192.69 151.14 192.81 151.2ZM192 151.47H192.18V151.65C192.12 151.71 192.09 151.74 192.09 151.74H191.91V151.56C191.97 151.62 192 151.59 192 151.47ZM186.96 155.7C186.96 155.88 186.9 156 186.78 156.06C186.66 156.06 186.63 156.12 186.69 156.24C186.57 156.36 186.48 156.42 186.42 156.42C186.36 156.42 186.27 156.45 186.15 156.51C186.27 156.33 186.39 156.21 186.51 156.15C186.63 156.03 186.75 155.88 186.87 155.7H186.96ZM186.15 156.51C186.21 156.63 186.18 156.69 186.06 156.69C186 156.69 185.97 156.75 185.97 156.87C185.91 156.87 185.88 156.75 185.88 156.51H186.15ZM183.63 158.4C183.75 158.28 183.75 158.31 183.63 158.49C183.51 158.61 183.51 158.58 183.63 158.4ZM181.74 160.29H181.92V160.47H181.74V160.29ZM181.47 160.74C181.47 160.56 181.5 160.53 181.56 160.65C181.68 160.71 181.65 160.74 181.47 160.74ZM173.64 170.73C173.64 170.67 173.67 170.64 173.73 170.64C173.67 170.7 173.64 170.73 173.64 170.73ZM173.55 170.82C173.55 170.76 173.58 170.73 173.64 170.73C173.64 170.85 173.61 170.88 173.55 170.82ZM192 172.26C192.18 172.26 192.27 172.41 192.27 172.71C192.21 172.71 192.18 172.62 192.18 172.44C192.06 172.5 192 172.44 192 172.26ZM194.16 172.71C194.22 172.53 194.25 172.53 194.25 172.71C194.25 172.89 194.22 172.89 194.16 172.71ZM180.39 172.89C180.45 172.71 180.48 172.71 180.48 172.89C180.48 173.07 180.45 173.07 180.39 172.89ZM181.2 172.8H181.38V172.98H181.2V172.8ZM194.97 173.52C195.03 173.64 194.97 173.7 194.79 173.7C194.61 173.7 194.55 173.64 194.61 173.52H194.97ZM206.657 184.23C206.657 184.35 206.597 184.59 206.477 184.95C206.597 184.83 206.747 184.65 206.927 184.41C207.107 184.11 207.077 183.9 206.837 183.78C206.897 183.66 206.957 183.63 207.017 183.69C207.017 183.69 207.077 183.69 207.197 183.69C207.197 183.81 207.227 183.9 207.287 183.96C207.287 184.02 207.287 184.08 207.287 184.14C207.407 184.08 207.467 183.99 207.467 183.87C207.407 183.75 207.437 183.66 207.557 183.6C207.497 183.72 207.557 183.78 207.737 183.78C207.857 183.78 207.857 183.72 207.737 183.6C207.857 183.72 207.977 183.75 208.097 183.69C208.217 183.57 208.247 183.45 208.187 183.33C208.307 183.51 208.307 183.72 208.187 183.96C208.067 184.2 207.947 184.38 207.827 184.5C207.827 184.56 207.797 184.62 207.737 184.68C207.797 184.68 207.827 184.62 207.827 184.5C207.947 184.5 208.037 184.47 208.097 184.41C208.157 184.35 208.217 184.32 208.277 184.32C208.217 184.56 208.277 184.59 208.457 184.41C208.637 184.23 208.607 184.17 208.367 184.23C208.487 184.11 208.607 184.02 208.727 183.96C208.847 183.84 208.937 183.72 208.997 183.6C209.297 184.44 209.297 185.19 208.997 185.85C208.697 186.51 208.427 187.17 208.187 187.83C209.087 187.95 209.927 187.92 210.707 187.74C211.487 187.56 212.297 187.35 213.137 187.11C212.897 186.87 212.657 186.63 212.417 186.39C212.177 186.15 211.997 185.79 211.877 185.31C211.937 185.31 211.907 185.43 211.787 185.67C211.667 185.55 211.637 185.43 211.697 185.31C211.697 185.13 211.637 184.98 211.517 184.86C211.457 184.92 211.457 185.01 211.517 185.13C211.577 185.25 211.547 185.37 211.427 185.49C211.307 185.19 211.217 184.95 211.157 184.77C211.037 184.53 211.007 184.26 211.067 183.96C211.067 183.84 211.037 183.81 210.977 183.87C210.917 183.93 210.887 184.02 210.887 184.14C210.647 183.78 210.617 183.36 210.797 182.88C210.977 182.34 211.037 181.92 210.977 181.62C211.997 179.1 213.167 176.76 214.487 174.6C215.747 172.38 217.097 170.25 218.537 168.21C218.717 167.55 219.017 167.04 219.437 166.68C219.857 166.32 220.127 165.81 220.247 165.15C220.247 164.91 220.097 164.79 219.797 164.79C219.917 164.67 219.977 164.55 219.977 164.43C220.037 164.25 220.097 164.1 220.157 163.98C220.157 163.86 220.127 163.8 220.067 163.8C220.007 163.8 219.977 163.74 219.977 163.62C220.397 162.54 220.967 161.67 221.687 161.01C222.467 160.35 223.187 159.66 223.847 158.94C223.967 158.94 224.027 158.91 224.027 158.85C224.027 158.79 224.087 158.82 224.207 158.94C224.387 158.58 224.597 158.31 224.837 158.13C225.137 157.95 225.437 157.8 225.737 157.68C226.037 157.56 226.337 157.44 226.637 157.32C226.937 157.14 227.177 156.9 227.357 156.6C227.477 156.6 227.537 156.63 227.537 156.69C227.597 156.69 227.657 156.69 227.717 156.69C228.017 156.39 228.407 156.18 228.887 156.06C229.367 155.88 229.697 155.58 229.877 155.16C230.177 155.28 230.447 155.25 230.687 155.07C230.927 154.83 231.197 154.68 231.497 154.62C231.617 154.56 231.677 154.5 231.677 154.44C231.677 154.32 231.707 154.2 231.767 154.08C231.887 154.08 231.917 154.14 231.857 154.26C231.857 154.32 231.917 154.32 232.037 154.26C232.157 154.26 232.187 154.26 232.127 154.26C232.067 154.2 232.037 154.11 232.037 153.99C232.397 154.05 232.727 153.96 233.027 153.72C233.327 153.48 233.687 153.42 234.107 153.54C234.227 153.54 234.227 153.51 234.107 153.45C234.047 153.39 234.047 153.3 234.107 153.18C234.707 153.06 235.337 152.94 235.997 152.82C236.657 152.64 237.287 152.4 237.887 152.1C238.727 151.98 239.447 151.89 240.047 151.83C240.707 151.71 241.367 151.56 242.027 151.38C243.047 151.44 244.037 151.47 244.997 151.47C245.957 151.47 247.007 151.62 248.147 151.92C248.447 152.04 248.627 152.16 248.687 152.28C249.167 152.28 249.527 152.4 249.767 152.64C250.007 152.82 250.217 153.06 250.397 153.36C252.617 154.92 254.087 157.29 254.807 160.47C254.687 160.83 254.687 161.19 254.807 161.55C254.807 162.03 254.747 162.45 254.627 162.81C254.567 163.11 254.507 163.47 254.447 163.89C253.187 166.65 251.597 169.11 249.677 171.27C247.817 173.37 245.777 175.32 243.557 177.12C243.017 177.72 242.417 178.23 241.757 178.65C241.097 179.07 240.467 179.58 239.867 180.18C239.687 180.18 239.537 180.21 239.417 180.27C236.537 182.49 233.477 184.44 230.237 186.12C229.337 186.78 228.287 187.38 227.087 187.92C225.947 188.46 224.867 188.94 223.847 189.36C222.587 190.14 221.087 190.77 219.347 191.25C218.207 191.91 216.917 192.39 215.477 192.69C214.097 192.93 212.687 193.11 211.247 193.23C211.007 193.29 210.797 193.35 210.617 193.41C210.377 193.47 210.107 193.5 209.807 193.5C209.027 193.5 208.397 193.35 207.917 193.05C207.377 192.75 206.927 192.42 206.567 192.06C206.147 191.64 205.757 191.22 205.397 190.8C204.977 190.38 204.497 189.99 203.957 189.63C204.017 189.57 204.107 189.54 204.227 189.54C203.567 189.18 203.327 188.79 203.507 188.37C203.627 187.89 203.837 187.32 204.137 186.66C204.257 186.66 204.317 186.69 204.317 186.75C204.257 186.81 204.257 186.84 204.317 186.84C204.497 186.54 204.647 186.21 204.767 185.85C204.887 185.43 205.007 185.07 205.127 184.77C205.247 185.07 205.217 185.43 205.037 185.85C204.857 186.21 204.797 186.63 204.857 187.11C205.157 186.63 205.397 186.18 205.577 185.76C205.697 185.28 205.937 184.8 206.297 184.32C206.237 184.5 206.177 184.68 206.117 184.86C206.057 184.98 205.997 185.13 205.937 185.31C206.177 185.19 206.327 185.04 206.387 184.86C206.387 184.62 206.447 184.41 206.567 184.23H206.657ZM231.677 155.07H231.857V154.89H231.677V155.07ZM230.237 155.61C230.177 155.61 230.117 155.64 230.057 155.7C230.177 155.7 230.237 155.67 230.237 155.61ZM228.707 156.42C229.307 156.3 229.697 156.06 229.877 155.7C229.697 155.82 229.487 155.94 229.247 156.06C229.067 156.12 228.887 156.24 228.707 156.42ZM226.727 157.77C227.027 157.53 227.357 157.35 227.717 157.23C228.077 157.05 228.377 156.81 228.617 156.51C228.317 156.63 227.957 156.81 227.537 157.05C227.117 157.23 226.847 157.47 226.727 157.77ZM229.967 161.55C228.827 163.65 227.567 165.69 226.187 167.67C224.867 169.59 223.547 171.54 222.227 173.52C220.967 175.5 219.767 177.54 218.627 179.64C217.487 181.68 216.557 183.87 215.837 186.21C219.257 185.13 222.407 183.78 225.287 182.16C228.167 180.54 230.987 178.86 233.747 177.12C235.187 176.04 236.627 174.93 238.067 173.79C239.507 172.65 240.887 171.48 242.207 170.28C243.527 169.02 244.757 167.7 245.897 166.32C247.037 164.94 248.057 163.41 248.957 161.73C249.137 161.13 249.287 160.59 249.407 160.11C249.587 159.63 249.737 159.12 249.857 158.58C249.797 158.46 249.767 158.31 249.767 158.13C249.827 157.89 249.827 157.68 249.767 157.5C248.207 156.96 246.527 156.72 244.727 156.78C242.987 156.78 241.217 157.02 239.417 157.5C237.617 157.92 235.877 158.49 234.197 159.21C232.577 159.93 231.167 160.71 229.967 161.55ZM226.367 157.86C226.247 157.98 226.247 157.98 226.367 157.86C226.547 157.74 226.547 157.74 226.367 157.86ZM222.857 160.11H223.037V159.93H222.857V160.11ZM223.307 160.29C223.187 160.29 223.067 160.41 222.947 160.65C223.067 160.65 223.127 160.62 223.127 160.56C223.187 160.44 223.247 160.35 223.307 160.29C223.427 160.23 223.457 160.2 223.397 160.2C223.337 160.2 223.307 160.23 223.307 160.29ZM247.877 172.53C247.997 172.71 248.057 172.71 248.057 172.53C248.057 172.35 247.997 172.35 247.877 172.53ZM245.897 174.6C246.017 174.78 246.077 174.78 246.077 174.6C246.077 174.42 246.017 174.42 245.897 174.6ZM208.907 184.59C209.027 184.77 209.087 184.8 209.087 184.68C209.087 184.5 209.027 184.47 208.907 184.59ZM206.387 185.13C206.507 185.31 206.567 185.34 206.567 185.22C206.567 185.04 206.507 185.01 206.387 185.13ZM231.227 154.44C231.347 154.38 231.407 154.35 231.407 154.35C231.407 154.41 231.347 154.44 231.227 154.44ZM207.737 183.6H207.557C207.557 183.48 207.587 183.42 207.647 183.42C207.707 183.42 207.737 183.36 207.737 183.24C207.857 183.24 207.917 183.3 207.917 183.42C207.857 183.48 207.797 183.54 207.737 183.6ZM208.997 183.6C208.997 183.54 209.027 183.51 209.087 183.51C209.147 183.51 209.117 183.54 208.997 183.6ZM207.197 183.69C207.197 183.63 207.227 183.6 207.287 183.6C207.347 183.6 207.317 183.63 207.197 183.69ZM206.747 184.14C206.747 184.08 206.777 184.05 206.837 184.05C206.897 184.05 206.867 184.08 206.747 184.14ZM206.657 184.23L206.747 184.14C206.747 184.2 206.717 184.23 206.657 184.23ZM208.277 184.32L208.367 184.23C208.427 184.29 208.397 184.32 208.277 184.32ZM205.127 186.21C205.007 186.09 205.037 186.03 205.217 186.03C205.337 186.03 205.307 186.09 205.127 186.21ZM275.907 185.04C275.967 184.86 275.937 184.83 275.817 184.95C275.757 185.01 275.787 185.04 275.907 185.04C275.787 185.16 275.637 185.22 275.457 185.22C275.277 185.22 275.187 185.37 275.187 185.67C274.827 185.61 274.527 185.76 274.287 186.12C274.047 186.42 273.747 186.51 273.387 186.39C273.267 186.45 273.237 186.51 273.297 186.57C273.417 186.57 273.447 186.63 273.387 186.75C272.787 186.81 272.307 186.99 271.947 187.29C271.647 187.53 271.227 187.77 270.687 188.01V187.92C270.747 187.86 270.777 187.8 270.777 187.74C270.717 187.74 270.657 187.8 270.597 187.92C270.537 187.98 270.567 188.01 270.687 188.01C270.627 188.13 270.597 188.19 270.597 188.19C269.937 188.37 269.517 188.58 269.337 188.82C268.737 188.88 268.167 189.06 267.627 189.36C267.087 189.66 266.607 189.96 266.187 190.26C265.647 190.32 265.047 190.44 264.387 190.62C263.727 190.8 263.037 190.95 262.317 191.07C261.597 191.13 260.877 191.13 260.157 191.07C259.497 191.01 258.897 190.8 258.357 190.44C258.237 190.5 258.177 190.56 258.177 190.62C258.117 190.68 258.027 190.68 257.907 190.62C257.907 190.44 257.877 190.32 257.817 190.26C256.977 189.78 256.287 189.24 255.747 188.64C255.147 188.04 254.517 187.41 253.857 186.75C253.857 186.63 253.887 186.63 253.947 186.75C254.007 186.81 254.097 186.81 254.217 186.75C254.217 186.57 254.157 186.45 254.037 186.39C253.917 186.27 253.827 186.15 253.767 186.03C253.647 186.03 253.617 186.12 253.677 186.3C253.677 186.42 253.617 186.42 253.497 186.3C253.317 186 253.197 185.7 253.137 185.4C253.017 185.04 252.897 184.71 252.777 184.41C252.837 182.85 253.047 181.47 253.407 180.27C253.707 179.01 254.127 177.87 254.667 176.85C255.147 175.77 255.687 174.75 256.287 173.79C256.887 172.83 257.487 171.84 258.087 170.82V171.09C258.147 171.09 258.267 171.03 258.447 170.91C258.567 170.79 258.507 170.7 258.267 170.64C258.387 170.52 258.477 170.43 258.537 170.37C258.657 170.31 258.777 170.22 258.897 170.1C259.737 168.54 260.697 167.13 261.777 165.87C262.857 164.55 263.907 163.2 264.927 161.82C264.987 161.82 265.017 161.88 265.017 162C265.017 162.06 265.077 162.06 265.197 162C265.317 161.94 265.347 161.79 265.287 161.55C265.227 161.31 265.347 161.16 265.647 161.1C265.647 161.28 265.587 161.4 265.467 161.46C265.407 161.46 265.407 161.52 265.467 161.64C265.587 161.64 265.647 161.61 265.647 161.55C265.707 161.43 265.797 161.31 265.917 161.19C265.917 161.13 265.887 161.13 265.827 161.19C265.767 161.19 265.707 161.16 265.647 161.1C265.707 161.04 265.737 160.98 265.737 160.92C265.797 160.86 265.887 160.8 266.007 160.74V161.01C266.127 160.89 266.247 160.8 266.367 160.74C266.547 160.68 266.697 160.59 266.817 160.47C266.877 160.35 266.847 160.26 266.727 160.2C266.667 160.14 266.667 160.05 266.727 159.93C267.027 159.93 267.207 159.84 267.267 159.66C267.387 159.48 267.417 159.3 267.357 159.12C267.537 159.42 267.657 159.48 267.717 159.3C267.777 159.06 267.957 158.94 268.257 158.94V159.12C268.017 159.24 267.807 159.42 267.627 159.66C267.507 159.84 267.357 159.99 267.177 160.11C267.417 160.23 267.627 160.17 267.807 159.93C267.987 159.63 268.137 159.36 268.257 159.12C268.317 159.12 268.347 159.12 268.347 159.12C268.347 159.06 268.377 159.03 268.437 159.03C268.437 159.09 268.377 159.06 268.257 158.94C268.557 158.46 268.887 158.04 269.247 157.68C269.607 157.26 270.027 156.99 270.507 156.87C270.807 156.75 271.047 156.54 271.227 156.24C271.527 156.12 271.767 155.94 271.947 155.7C271.887 155.58 271.827 155.58 271.767 155.7C271.707 155.82 271.617 155.82 271.497 155.7C271.797 155.4 272.127 155.07 272.487 154.71C272.847 154.35 273.267 154.17 273.747 154.17C273.867 154.11 273.867 154.05 273.747 153.99C273.687 153.93 273.717 153.84 273.837 153.72C274.017 153.72 274.047 153.75 273.927 153.81C273.867 153.87 273.897 153.93 274.017 153.99C274.197 153.93 274.317 153.84 274.377 153.72C274.497 153.6 274.677 153.51 274.917 153.45C274.977 153.33 274.947 153.27 274.827 153.27C274.767 153.21 274.767 153.12 274.827 153C274.947 153 275.007 153.06 275.007 153.18C275.007 153.3 275.037 153.42 275.097 153.54C274.257 154.08 273.477 154.65 272.757 155.25C272.097 155.85 271.437 156.48 270.777 157.14C271.377 156.84 271.947 156.42 272.487 155.88C273.027 155.28 273.627 154.8 274.287 154.44C274.587 154.08 274.947 153.78 275.367 153.54C275.847 153.3 276.237 153 276.537 152.64C277.017 152.52 277.377 152.34 277.617 152.1C277.917 151.8 278.307 151.59 278.787 151.47C278.487 151.41 278.097 151.53 277.617 151.83C277.137 152.07 276.777 152.34 276.537 152.64C276.297 152.64 276.027 152.79 275.727 153.09C275.487 153.33 275.307 153.24 275.187 152.82C275.367 152.94 275.517 152.88 275.637 152.64C275.757 152.4 275.967 152.25 276.267 152.19C276.147 152.01 276.117 151.89 276.177 151.83C276.297 151.95 276.447 151.98 276.627 151.92C276.987 151.68 277.377 151.5 277.797 151.38C278.217 151.26 278.547 151.05 278.787 150.75C278.907 150.87 279.027 150.87 279.147 150.75C279.267 150.57 279.387 150.42 279.507 150.3C279.927 150.42 280.467 150.39 281.127 150.21C281.847 149.97 282.537 150 283.197 150.3C283.257 150.3 283.257 150.27 283.197 150.21C283.677 150.15 284.037 150.27 284.277 150.57C284.577 150.81 285.027 150.99 285.627 151.11C285.747 151.41 285.897 151.65 286.077 151.83C286.257 152.01 286.377 152.25 286.437 152.55C286.677 152.79 286.917 153.03 287.157 153.27C287.397 153.45 287.577 153.69 287.697 153.99C287.577 154.71 287.127 155.4 286.347 156.06C285.627 156.72 284.907 156.9 284.187 156.6C284.067 156.54 283.977 156.45 283.917 156.33C283.857 156.15 283.707 156.09 283.467 156.15C283.467 155.91 283.407 155.76 283.287 155.7C283.167 155.64 283.167 155.46 283.287 155.16C282.987 155.22 282.687 155.28 282.387 155.34C282.147 155.34 281.907 155.4 281.667 155.52C279.207 156.6 277.107 157.95 275.367 159.57C273.687 161.19 272.037 162.87 270.417 164.61V164.88C269.937 165.42 269.457 165.99 268.977 166.59C268.557 167.13 268.107 167.64 267.627 168.12C267.687 168.24 267.657 168.33 267.537 168.39C267.477 168.39 267.477 168.45 267.537 168.57C267.117 168.93 266.787 169.35 266.547 169.83C266.307 170.25 266.007 170.61 265.647 170.91C267.207 170.61 268.587 170.19 269.787 169.65C271.047 169.11 272.457 168.75 274.017 168.57C275.097 168.15 276.117 167.88 277.077 167.76C278.037 167.64 279.117 167.37 280.317 166.95C280.737 167.07 281.067 167.07 281.307 166.95C281.547 166.77 281.907 166.71 282.387 166.77L282.657 166.5C283.557 166.5 284.637 166.35 285.897 166.05C287.157 165.75 288.417 165.54 289.677 165.42C289.617 165.66 289.647 165.78 289.767 165.78C289.947 165.78 290.037 165.84 290.037 165.96C290.517 166.08 290.847 166.29 291.027 166.59C291.267 166.89 291.627 167.07 292.107 167.13C292.467 167.73 292.827 168.33 293.187 168.93C293.607 169.47 293.967 170.04 294.267 170.64C294.027 170.88 293.817 171.12 293.637 171.36C293.457 171.54 293.187 171.66 292.827 171.72C292.707 171.78 292.647 171.87 292.647 171.99C292.707 172.05 292.707 172.08 292.647 172.08C290.007 174.12 287.487 176.25 285.087 178.47C282.687 180.69 280.017 182.64 277.077 184.32C276.957 184.44 276.897 184.53 276.897 184.59C276.657 184.59 276.537 184.56 276.537 184.5C276.477 184.74 276.327 184.92 276.087 185.04H275.907ZM282.117 150.39C281.997 150.51 281.937 150.54 281.937 150.48C282.057 150.48 282.117 150.45 282.117 150.39ZM279.327 150.84C279.447 150.78 279.537 150.75 279.597 150.75C279.717 150.75 279.777 150.69 279.777 150.57C279.417 150.57 279.267 150.66 279.327 150.84ZM278.877 151.38C278.937 151.56 278.967 151.56 278.967 151.38C278.967 151.2 278.937 151.2 278.877 151.38ZM273.387 154.44C273.267 154.56 273.207 154.59 273.207 154.53C273.327 154.53 273.387 154.5 273.387 154.44ZM272.937 154.71C272.817 154.77 272.787 154.83 272.847 154.89C272.907 154.89 272.937 154.83 272.937 154.71ZM269.787 157.59C269.667 157.65 269.637 157.71 269.697 157.77C269.757 157.77 269.787 157.71 269.787 157.59C269.967 157.59 270.117 157.47 270.237 157.23C270.117 157.23 270.027 157.29 269.967 157.41C269.907 157.47 269.847 157.53 269.787 157.59ZM269.967 158.04H269.877C269.877 158.16 269.817 158.22 269.697 158.22C269.637 158.22 269.607 158.28 269.607 158.4C269.307 158.52 269.157 158.67 269.157 158.85H268.977V159.03C268.857 159.03 268.737 159.09 268.617 159.21C268.557 159.27 268.587 159.33 268.707 159.39C268.707 159.27 268.737 159.21 268.797 159.21C268.917 159.21 268.977 159.15 268.977 159.03C269.097 159.09 269.157 159.03 269.157 158.85C269.337 158.73 269.487 158.58 269.607 158.4C269.727 158.46 269.847 158.34 269.967 158.04C270.147 158.04 270.267 157.98 270.327 157.86C270.387 157.68 270.477 157.53 270.597 157.41C270.177 157.53 269.967 157.74 269.967 158.04ZM268.707 158.85C268.827 158.67 268.947 158.52 269.067 158.4C269.247 158.28 269.397 158.13 269.517 157.95C269.277 158.01 269.067 158.16 268.887 158.4C268.707 158.58 268.647 158.73 268.707 158.85ZM267.627 160.38C267.687 160.56 267.717 160.56 267.717 160.38C267.777 160.2 267.747 160.2 267.627 160.38ZM279.507 173.52C279.867 173.4 280.227 173.25 280.587 173.07C280.947 172.89 281.247 172.62 281.487 172.26C281.007 172.38 280.617 172.47 280.317 172.53C280.017 172.59 279.657 172.59 279.237 172.53C279.357 172.35 279.537 172.29 279.777 172.35C280.077 172.41 280.257 172.32 280.317 172.08C280.077 171.96 279.807 171.99 279.507 172.17C279.267 172.29 278.937 172.32 278.517 172.26C278.397 172.14 278.337 172.08 278.337 172.08C278.397 172.02 278.457 171.9 278.517 171.72C278.397 171.78 278.277 171.84 278.157 171.9C278.037 171.9 278.007 171.99 278.067 172.17C278.067 172.35 278.127 172.38 278.247 172.26C278.367 172.14 278.397 172.17 278.337 172.35C278.277 172.47 278.157 172.53 277.977 172.53C277.857 172.47 277.797 172.38 277.797 172.26C277.797 172.56 277.707 172.65 277.527 172.53C277.227 172.29 276.897 172.17 276.537 172.17C276.237 172.17 275.907 172.23 275.547 172.35C275.187 172.47 274.827 172.59 274.467 172.71C274.107 172.77 273.777 172.74 273.477 172.62C273.417 172.5 273.417 172.44 273.477 172.44C273.597 172.38 273.717 172.29 273.837 172.17V172.53C273.957 172.53 274.077 172.56 274.197 172.62C274.317 172.62 274.407 172.56 274.467 172.44C274.407 172.26 274.137 172.11 273.657 171.99C273.177 172.17 272.607 172.35 271.947 172.53C271.347 172.65 270.807 172.71 270.327 172.71C270.267 172.65 270.267 172.56 270.327 172.44C270.387 172.32 270.357 172.26 270.237 172.26C270.237 172.44 270.147 172.59 269.967 172.71C269.847 172.77 269.757 172.77 269.697 172.71C269.637 172.59 269.667 172.53 269.787 172.53C269.907 172.47 269.907 172.38 269.787 172.26C269.127 172.26 268.557 172.38 268.077 172.62C267.597 172.8 266.937 172.89 266.097 172.89C266.097 172.77 266.067 172.71 266.007 172.71C266.007 172.71 266.007 172.65 266.007 172.53C265.767 172.47 265.647 172.53 265.647 172.71C265.647 172.83 265.557 172.86 265.377 172.8C265.317 172.68 265.317 172.62 265.377 172.62C265.497 172.62 265.557 172.56 265.557 172.44C265.377 172.5 265.287 172.5 265.287 172.44C265.287 172.32 265.227 172.23 265.107 172.17C265.107 172.47 265.047 172.65 264.927 172.71C264.807 172.59 264.717 172.53 264.657 172.53C264.717 172.89 264.597 173.01 264.297 172.89C263.217 174.87 262.107 176.85 260.967 178.83C259.887 180.81 259.107 183 258.627 185.4C260.247 185.16 261.717 184.8 263.037 184.32C264.357 183.78 265.587 183.18 266.727 182.52C267.927 181.8 269.097 181.08 270.237 180.36C271.377 179.64 272.577 178.98 273.837 178.38C274.917 177.54 276.027 176.76 277.167 176.04C278.367 175.26 279.477 174.36 280.497 173.34C280.317 173.4 280.137 173.46 279.957 173.52C279.837 173.52 279.687 173.52 279.507 173.52ZM277.617 171.99H277.797V171.81H277.617V171.99ZM277.167 172.17C277.167 172.05 277.227 172.02 277.347 172.08C277.527 172.14 277.587 172.08 277.527 171.9C277.407 171.9 277.287 171.93 277.167 171.99C277.047 172.05 277.047 172.11 277.167 172.17ZM280.407 172.17H280.767C280.767 172.05 280.677 171.99 280.497 171.99C280.377 171.93 280.347 171.99 280.407 172.17ZM281.127 171.99C281.127 171.93 281.097 171.9 281.037 171.9C280.977 171.9 280.947 171.93 280.947 171.99C281.007 171.99 281.037 172.02 281.037 172.08C281.037 172.14 281.067 172.11 281.127 171.99ZM270.417 172.08C270.477 172.26 270.507 172.26 270.507 172.08C270.507 171.9 270.477 171.9 270.417 172.08ZM275.367 172.26C275.307 172.14 275.337 172.11 275.457 172.17C275.637 172.23 275.697 172.17 275.637 171.99C275.517 171.93 275.397 171.96 275.277 172.08C275.217 172.14 275.247 172.2 275.367 172.26ZM274.557 172.44C274.677 172.38 274.797 172.35 274.917 172.35C275.097 172.35 275.187 172.26 275.187 172.08C274.947 172.14 274.767 172.17 274.647 172.17C274.587 172.11 274.557 172.2 274.557 172.44ZM266.277 172.44V172.62C266.397 172.74 266.457 172.74 266.457 172.62C266.517 172.44 266.487 172.35 266.367 172.35C266.367 172.47 266.337 172.5 266.277 172.44ZM280.767 173.16C280.827 173.34 280.857 173.34 280.857 173.16C280.857 172.98 280.827 172.98 280.767 173.16ZM261.867 175.86C261.987 176.04 262.017 176.07 261.957 175.95C261.957 175.77 261.927 175.74 261.867 175.86ZM259.527 181.08C259.587 181.26 259.617 181.26 259.617 181.08C259.617 180.9 259.587 180.9 259.527 181.08ZM258.447 184.05C258.507 184.23 258.537 184.23 258.537 184.05C258.597 183.87 258.567 183.87 258.447 184.05ZM274.197 185.94C274.077 186.06 274.017 186.09 274.017 186.03C274.137 186.03 274.197 186 274.197 185.94ZM278.787 150.75C278.667 150.75 278.577 150.78 278.517 150.84C278.457 150.9 278.367 150.9 278.247 150.84C278.307 150.78 278.487 150.69 278.787 150.57V150.75ZM278.247 150.84C278.247 151.14 278.097 151.2 277.797 151.02C277.917 150.9 278.067 150.84 278.247 150.84ZM277.347 151.2C277.347 151.02 277.377 150.99 277.437 151.11C277.557 151.23 277.527 151.26 277.347 151.2ZM277.347 151.2C277.347 151.32 277.317 151.38 277.257 151.38C277.197 151.38 277.167 151.41 277.167 151.47C277.047 151.47 277.017 151.41 277.077 151.29C277.137 151.17 277.227 151.14 277.347 151.2ZM276.537 151.47H276.717V151.65C276.657 151.71 276.627 151.74 276.627 151.74H276.447V151.56C276.507 151.62 276.537 151.59 276.537 151.47ZM271.497 155.7C271.497 155.88 271.437 156 271.317 156.06C271.197 156.06 271.167 156.12 271.227 156.24C271.107 156.36 271.017 156.42 270.957 156.42C270.897 156.42 270.807 156.45 270.687 156.51C270.807 156.33 270.927 156.21 271.047 156.15C271.167 156.03 271.287 155.88 271.407 155.7H271.497ZM270.687 156.51C270.747 156.63 270.717 156.69 270.597 156.69C270.537 156.69 270.507 156.75 270.507 156.87C270.447 156.87 270.417 156.75 270.417 156.51H270.687ZM268.167 158.4C268.287 158.28 268.287 158.31 268.167 158.49C268.047 158.61 268.047 158.58 268.167 158.4ZM266.277 160.29H266.457V160.47H266.277V160.29ZM266.007 160.74C266.007 160.56 266.037 160.53 266.097 160.65C266.217 160.71 266.187 160.74 266.007 160.74ZM258.177 170.73C258.177 170.67 258.207 170.64 258.267 170.64C258.207 170.7 258.177 170.73 258.177 170.73ZM258.087 170.82C258.087 170.76 258.117 170.73 258.177 170.73C258.177 170.85 258.147 170.88 258.087 170.82ZM276.537 172.26C276.717 172.26 276.807 172.41 276.807 172.71C276.747 172.71 276.717 172.62 276.717 172.44C276.597 172.5 276.537 172.44 276.537 172.26ZM278.697 172.71C278.757 172.53 278.787 172.53 278.787 172.71C278.787 172.89 278.757 172.89 278.697 172.71ZM264.927 172.89C264.987 172.71 265.017 172.71 265.017 172.89C265.017 173.07 264.987 173.07 264.927 172.89ZM265.737 172.8H265.917V172.98H265.737V172.8ZM279.507 173.52C279.567 173.64 279.507 173.7 279.327 173.7C279.147 173.7 279.087 173.64 279.147 173.52H279.507ZM347.68 153C347.74 152.82 347.77 152.82 347.77 153C347.77 153.18 347.74 153.18 347.68 153ZM360.64 166.32C360.52 166.44 360.4 166.53 360.28 166.59C360.22 166.65 360.19 166.74 360.19 166.86C360.01 166.74 359.86 166.77 359.74 166.95C359.68 167.07 359.59 167.07 359.47 166.95V167.49C359.29 167.37 359.2 167.46 359.2 167.76C359.08 167.64 359.02 167.58 359.02 167.58C359.02 167.52 358.9 167.52 358.66 167.58C358.72 167.7 358.78 167.76 358.84 167.76C358.9 167.76 358.9 167.82 358.84 167.94C358.72 167.7 358.57 167.7 358.39 167.94C358.21 168.12 358.06 168.15 357.94 168.03C357.88 168.15 357.91 168.21 358.03 168.21C358.15 168.21 358.18 168.27 358.12 168.39C357.94 168.39 357.82 168.33 357.76 168.21C357.64 168.27 357.61 168.39 357.67 168.57C357.73 168.69 357.7 168.75 357.58 168.75C357.52 168.57 357.46 168.51 357.4 168.57C357.34 168.57 357.28 168.63 357.22 168.75C357.16 168.81 357.1 168.87 357.04 168.93C356.98 168.93 356.92 168.87 356.86 168.75C356.56 169.23 356.17 169.56 355.69 169.74C355.21 169.92 354.76 170.16 354.34 170.46C354.28 170.58 354.28 170.67 354.34 170.73C354.46 170.73 354.49 170.79 354.43 170.91C354.31 170.67 354.07 170.67 353.71 170.91C353.35 171.09 353.17 171.33 353.17 171.63C352.99 171.69 352.93 171.69 352.99 171.63C353.11 171.51 353.14 171.39 353.08 171.27C352.96 171.27 352.87 171.36 352.81 171.54C352.75 171.66 352.66 171.63 352.54 171.45C352.6 171.57 352.57 171.66 352.45 171.72C352.39 171.72 352.39 171.78 352.45 171.9C352.33 171.66 352.24 171.63 352.18 171.81C352.18 171.93 352.06 171.96 351.82 171.9C351.46 172.26 351.01 172.59 350.47 172.89C349.93 173.13 349.36 173.4 348.76 173.7C348.7 173.7 348.67 173.79 348.67 173.97C348.01 174.27 347.41 174.54 346.87 174.78C346.33 175.02 345.85 175.32 345.43 175.68C345.31 175.68 345.25 175.62 345.25 175.5C344.59 176.04 343.84 176.49 343 176.85C342.16 177.21 341.41 177.63 340.75 178.11C340.81 178.11 340.75 178.02 340.57 177.84C340.45 178.2 340.18 178.41 339.76 178.47C339.34 178.53 339.07 178.71 338.95 179.01C339.97 179.31 341.05 179.58 342.19 179.82C343.39 180.06 344.5 180.24 345.52 180.36C346.24 180.72 347.02 181.02 347.86 181.26C348.76 181.44 349.72 181.65 350.74 181.89C350.74 181.95 350.74 182.01 350.74 182.07C350.8 182.07 350.83 182.1 350.83 182.16C352.33 182.46 353.68 182.91 354.88 183.51C356.08 184.05 357.34 184.56 358.66 185.04C358.72 185.16 358.78 185.25 358.84 185.31C358.9 185.31 358.9 185.37 358.84 185.49C358.96 185.49 359.02 185.43 359.02 185.31C359.08 185.31 359.11 185.4 359.11 185.58C359.95 185.82 360.79 186.27 361.63 186.93C362.47 187.53 363.31 188.1 364.15 188.64C364.21 188.82 364.21 188.97 364.15 189.09C364.45 188.97 364.63 189.09 364.69 189.45C364.81 189.75 365.02 189.96 365.32 190.08C365.32 190.38 365.23 190.44 365.05 190.26C365.11 190.44 365.17 190.59 365.23 190.71C365.35 190.83 365.44 190.95 365.5 191.07C365.38 191.07 365.29 191.04 365.23 190.98C365.29 191.1 365.41 191.31 365.59 191.61C365.83 191.85 365.8 191.97 365.5 191.97C365.44 192.21 365.5 192.36 365.68 192.42C365.86 192.42 365.89 192.54 365.77 192.78C365.65 192.84 365.56 192.84 365.5 192.78C365.5 192.66 365.44 192.57 365.32 192.51C365.2 192.57 365.17 192.63 365.23 192.69C365.35 192.75 365.38 192.84 365.32 192.96C365.02 192.9 364.78 192.66 364.6 192.24C364.48 192.3 364.45 192.36 364.51 192.42C364.63 192.42 364.66 192.48 364.6 192.6C364.42 192.42 364.15 192.36 363.79 192.42C363.67 192 363.28 191.73 362.62 191.61C361.96 191.49 361.51 191.19 361.27 190.71C361.15 190.89 360.97 190.92 360.73 190.8C360.55 190.68 360.46 190.53 360.46 190.35C360.16 190.29 359.92 190.26 359.74 190.26C359.62 190.26 359.5 190.11 359.38 189.81C359.02 189.81 358.66 189.81 358.3 189.81C357.94 189.75 357.73 189.48 357.67 189C357.61 189.12 357.55 189.24 357.49 189.36C357.49 189.48 357.37 189.48 357.13 189.36V188.82C357.07 188.88 357.01 188.97 356.95 189.09C356.95 189.15 356.89 189.18 356.77 189.18C356.65 189.12 356.56 189.06 356.5 189C356.5 188.88 356.44 188.76 356.32 188.64C356.2 188.76 356.08 188.79 355.96 188.73C355.9 188.67 355.84 188.7 355.78 188.82C355.54 188.52 355.21 188.4 354.79 188.46V188.19C354.31 188.31 353.83 188.22 353.35 187.92C352.87 187.62 352.33 187.5 351.73 187.56C351.73 187.44 351.67 187.38 351.55 187.38C351.49 187.32 351.49 187.23 351.55 187.11C351.43 187.23 351.37 187.32 351.37 187.38C351.19 187.32 351.07 187.17 351.01 186.93C350.89 186.93 350.83 186.99 350.83 187.11C350.83 187.17 350.77 187.17 350.65 187.11C349.45 186.75 348.31 186.42 347.23 186.12C346.21 185.76 345.07 185.49 343.81 185.31C343.51 185.19 343.12 185.07 342.64 184.95C342.16 184.77 341.74 184.74 341.38 184.86C341.2 184.62 341.02 184.53 340.84 184.59C340.66 184.65 340.42 184.59 340.12 184.41C340.06 184.41 340.03 184.47 340.03 184.59C340.03 184.65 339.97 184.65 339.85 184.59V184.32C338.89 184.44 338.05 184.26 337.33 183.78C336.85 183.9 336.34 183.87 335.8 183.69C335.26 183.51 334.78 183.48 334.36 183.6V183.33C333.94 183.45 333.55 183.48 333.19 183.42C332.83 183.3 332.41 183.18 331.93 183.06C331.39 183.9 330.94 184.89 330.58 186.03C330.16 187.11 329.62 187.98 328.96 188.64C328.78 188.52 328.66 188.46 328.6 188.46C328.48 188.46 328.3 188.52 328.06 188.64C327.7 188.28 327.25 188.04 326.71 187.92C326.17 187.74 325.81 187.32 325.63 186.66C325.51 186.78 325.42 186.81 325.36 186.75C325.3 186.69 325.18 186.69 325 186.75C324.58 186.09 324.52 185.4 324.82 184.68C325.06 183.9 325.3 183.24 325.54 182.7C325.36 182.34 325.15 182.1 324.91 181.98C324.67 181.8 324.37 181.56 324.01 181.26C323.95 180.6 323.74 180.15 323.38 179.91C322.96 179.67 322.69 179.25 322.57 178.65C323.11 178.17 323.86 177.87 324.82 177.75C325.78 177.57 326.71 177.54 327.61 177.66C328.51 175.74 329.44 173.85 330.4 171.99C331.3 170.13 332.26 168.3 333.28 166.5C333.1 166.02 332.65 165.72 331.93 165.6C331.69 165.12 331.33 164.79 330.85 164.61C330.37 164.37 329.98 164.01 329.68 163.53C329.8 163.23 329.92 163.08 330.04 163.08C330.34 162.24 330.79 161.55 331.39 161.01C331.99 160.47 332.65 159.99 333.37 159.57C334.09 159.09 334.84 158.67 335.62 158.31C336.4 157.89 337.12 157.44 337.78 156.96C338.38 156.84 338.95 156.66 339.49 156.42C340.03 156.12 340.54 155.94 341.02 155.88C341.14 155.64 341.35 155.52 341.65 155.52C341.95 155.52 342.16 155.4 342.28 155.16C344.44 154.56 346.87 153.99 349.57 153.45C352.33 152.85 354.94 152.73 357.4 153.09C357.52 153.15 357.67 153.21 357.85 153.27C358.03 153.27 358.09 153.3 358.03 153.36C359.65 153.48 361 154.08 362.08 155.16C363.22 156.18 364.18 157.29 364.96 158.49C364.96 158.91 364.96 159.27 364.96 159.57C365.02 159.87 364.96 160.14 364.78 160.38V161.01C364.48 161.55 364.18 162.09 363.88 162.63C363.64 163.17 363.37 163.68 363.07 164.16C363.01 164.22 362.89 164.22 362.71 164.16C362.77 164.46 362.74 164.67 362.62 164.79C362.5 164.85 362.35 164.91 362.17 164.97C362.05 164.97 361.9 165.03 361.72 165.15C361.6 165.27 361.57 165.45 361.63 165.69C361.33 165.57 361.21 165.66 361.27 165.96C360.85 165.78 360.64 165.9 360.64 166.32ZM347.95 159.3C348.01 159.12 347.98 159.09 347.86 159.21C347.8 159.27 347.83 159.3 347.95 159.3C347.95 159.36 347.86 159.39 347.68 159.39C347.68 159.33 347.68 159.3 347.68 159.3C347.74 159.24 347.77 159.18 347.77 159.12C347.53 159.18 347.29 159.3 347.05 159.48C346.87 159.6 346.69 159.57 346.51 159.39C346.51 159.63 346.45 159.75 346.33 159.75C346.33 159.63 346.24 159.57 346.06 159.57C345.94 159.87 345.7 160.05 345.34 160.11C344.98 160.17 344.74 160.14 344.62 160.02C344.62 160.26 344.59 160.38 344.53 160.38C344.41 160.26 344.32 160.26 344.26 160.38C344.2 160.44 344.11 160.41 343.99 160.29C343.51 161.25 343 162.18 342.46 163.08C341.98 163.92 341.41 164.7 340.75 165.42V165.87C340.69 165.87 340.66 165.87 340.66 165.87C340.66 165.81 340.63 165.78 340.57 165.78C340.57 165.96 340.51 166.17 340.39 166.41C340.33 166.59 340.24 166.62 340.12 166.5C340 166.74 339.91 167.04 339.85 167.4C339.79 167.76 339.64 167.88 339.4 167.76C339.52 168.06 339.46 168.24 339.22 168.3C339.04 168.36 338.98 168.57 339.04 168.93C338.86 168.81 338.77 168.9 338.77 169.2C338.77 169.5 338.65 169.59 338.41 169.47C338.41 169.59 338.41 169.65 338.41 169.65C338.47 169.65 338.5 169.71 338.5 169.83C338.38 169.95 338.32 169.98 338.32 169.92C338.32 169.8 338.26 169.8 338.14 169.92C338.2 170.22 338.08 170.49 337.78 170.73C337.54 170.97 337.36 171.21 337.24 171.45C337.18 171.57 337.15 171.75 337.15 171.99C337.21 172.17 337.12 172.17 336.88 171.99C336.88 172.47 336.76 172.83 336.52 173.07C336.34 173.25 336.22 173.52 336.16 173.88C336.64 173.46 337.21 173.16 337.87 172.98C338.59 172.74 339.19 172.38 339.67 171.9C339.85 172.02 340 171.96 340.12 171.72C340.3 171.48 340.51 171.42 340.75 171.54C341.05 171.36 341.35 171.18 341.65 171C341.95 170.82 342.28 170.67 342.64 170.55C342.7 170.49 342.73 170.43 342.73 170.37C342.73 170.25 342.79 170.19 342.91 170.19C343.93 169.83 344.86 169.35 345.7 168.75C346.54 168.09 347.47 167.61 348.49 167.31C348.61 167.25 348.64 167.16 348.58 167.04C348.58 166.92 348.64 166.86 348.76 166.86C349.3 166.74 349.78 166.5 350.2 166.14C350.62 165.78 351.07 165.54 351.55 165.42C352.27 164.82 352.99 164.28 353.71 163.8C354.49 163.26 355.24 162.72 355.96 162.18C356.68 161.64 357.34 161.04 357.94 160.38C358.6 159.72 359.14 158.97 359.56 158.13C359.2 158.19 358.93 158.13 358.75 157.95C358.69 158.19 358.6 158.22 358.48 158.04C358.36 157.86 358.24 157.89 358.12 158.13V157.86C357.76 158.1 357.34 158.13 356.86 157.95C356.44 157.77 356.05 157.8 355.69 158.04C355.39 157.98 355.09 157.92 354.79 157.86C354.55 157.8 354.22 157.89 353.8 158.13C353.74 157.89 353.62 157.89 353.44 158.13C353.32 158.37 353.23 158.31 353.17 157.95C353.05 158.19 352.9 158.31 352.72 158.31C352.6 158.31 352.45 158.31 352.27 158.31C352.15 158.25 352 158.22 351.82 158.22C351.7 158.22 351.58 158.31 351.46 158.49C351.52 158.37 351.49 158.34 351.37 158.4C351.25 158.4 351.16 158.34 351.1 158.22C351.04 158.4 350.89 158.52 350.65 158.58C350.47 158.58 350.29 158.52 350.11 158.4C349.99 158.82 349.78 158.91 349.48 158.67C349.48 158.79 349.51 158.88 349.57 158.94C349.63 158.94 349.6 158.94 349.48 158.94C349.36 158.88 349.27 158.91 349.21 159.03C349.21 159.09 349.15 159.09 349.03 159.03C349.03 158.85 349 158.76 348.94 158.76C348.58 159.12 348.25 159.3 347.95 159.3ZM362.26 164.61C362.32 164.79 362.35 164.79 362.35 164.61C362.35 164.43 362.32 164.43 362.26 164.61ZM348.94 173.25C348.82 173.25 348.76 173.28 348.76 173.34C348.88 173.34 348.94 173.31 348.94 173.25ZM349.12 173.34C349 173.52 349 173.55 349.12 173.43C349.24 173.25 349.24 173.22 349.12 173.34ZM346.6 174.6C346.72 174.6 346.75 174.6 346.69 174.6C346.63 174.54 346.6 174.54 346.6 174.6ZM338.77 178.92C338.71 179.1 338.71 179.16 338.77 179.1C338.89 178.98 338.89 178.92 338.77 178.92V178.65C338.65 178.59 338.59 178.65 338.59 178.83C338.59 179.01 338.65 179.04 338.77 178.92ZM348.58 185.49C348.64 185.67 348.67 185.67 348.67 185.49C348.67 185.31 348.64 185.31 348.58 185.49ZM352 187.02H352.18V186.84H352V187.02ZM352.54 187.02C352.48 187.32 352.48 187.35 352.54 187.11C352.6 186.87 352.6 186.84 352.54 187.02ZM353.44 187.47H353.62V187.29H353.44V187.47ZM354.43 187.83H354.61V187.65H354.43V187.83ZM362.8 188.1C362.86 188.28 362.89 188.28 362.89 188.1C362.89 187.92 362.86 187.92 362.8 188.1ZM363.7 188.73C363.76 188.91 363.79 188.91 363.79 188.73C363.79 188.55 363.76 188.55 363.7 188.73ZM357.31 189H357.49V188.82H357.31V189ZM357.94 189.18C358 189.36 358.03 189.36 358.03 189.18C358.03 189 358 189 357.94 189.18ZM360.64 190.26C360.7 190.44 360.73 190.44 360.73 190.26C360.73 190.08 360.7 190.08 360.64 190.26ZM362.62 191.43C362.68 191.61 362.71 191.61 362.71 191.43C362.71 191.25 362.68 191.25 362.62 191.43ZM364.96 192.42C365.02 192.6 365.05 192.6 365.05 192.42C365.05 192.24 365.02 192.24 364.96 192.42ZM361.81 165.33C361.87 165.15 361.9 165.15 361.9 165.33C361.9 165.51 361.87 165.51 361.81 165.33ZM360.64 166.32C360.76 166.32 360.82 166.29 360.82 166.23C360.94 166.29 360.94 166.38 360.82 166.5C360.7 166.56 360.64 166.5 360.64 166.32ZM357.31 169.02C357.37 168.84 357.4 168.84 357.4 169.02C357.4 169.2 357.37 169.2 357.31 169.02ZM356.77 169.11C356.89 169.11 356.95 169.2 356.95 169.38C356.89 169.38 356.86 169.38 356.86 169.38C356.86 169.32 356.83 169.29 356.77 169.29V169.11ZM353.44 171.18H353.71C353.71 171.42 353.59 171.54 353.35 171.54C353.41 171.48 353.44 171.36 353.44 171.18ZM352.27 172.08C352.33 171.9 352.36 171.9 352.36 172.08C352.36 172.26 352.33 172.26 352.27 172.08ZM351.91 172.35C351.97 172.17 352 172.17 352 172.35C352 172.53 351.97 172.53 351.91 172.35ZM351.28 172.71C351.34 172.53 351.37 172.53 351.37 172.71C351.37 172.89 351.34 172.89 351.28 172.71ZM349.3 173.79C349.42 173.85 349.45 173.94 349.39 174.06C349.33 174.12 349.27 174.15 349.21 174.15C349.09 174.09 349.06 174.06 349.12 174.06C349.24 174 349.3 173.91 349.3 173.79ZM348.76 173.97C348.82 173.97 348.85 174.06 348.85 174.24H348.58C348.58 174.18 348.61 174.15 348.67 174.15C348.73 174.15 348.76 174.09 348.76 173.97ZM348.31 174.42C348.31 174.36 348.37 174.33 348.49 174.33C348.49 174.39 348.43 174.42 348.31 174.42ZM346.96 174.96H347.14V175.14H346.96V174.96ZM344.44 176.4C344.5 176.22 344.53 176.22 344.53 176.4C344.53 176.58 344.5 176.58 344.44 176.4ZM343.72 176.76C343.78 176.58 343.81 176.58 343.81 176.76C343.81 176.94 343.78 176.94 343.72 176.76ZM342.91 177.3C342.97 177.12 343 177.12 343 177.3C343 177.48 342.97 177.48 342.91 177.3ZM339.76 178.65C339.88 178.77 339.94 178.86 339.94 178.92C339.82 178.92 339.76 178.83 339.76 178.65ZM365.77 192.24C365.83 192.06 365.86 192.06 365.86 192.24C365.86 192.42 365.83 192.42 365.77 192.24ZM364.15 192.51H364.33V192.69H364.15V192.51ZM365.77 193.14C365.89 193.02 365.95 193.05 365.95 193.23C365.95 193.35 365.89 193.32 365.77 193.14ZM396.772 179.1C396.833 178.86 396.803 178.8 396.683 178.92C396.623 178.98 396.653 179.04 396.772 179.1V179.28C396.053 180.12 395.273 180.9 394.433 181.62C393.593 182.28 392.723 182.94 391.823 183.6C390.323 184.68 388.823 185.76 387.323 186.84C385.823 187.86 384.173 188.76 382.373 189.54C381.773 190.02 381.113 190.38 380.393 190.62C379.733 190.86 379.103 191.19 378.503 191.61C378.383 191.49 378.323 191.43 378.323 191.43C378.203 191.73 377.963 191.88 377.603 191.88C377.243 191.82 377.033 191.94 376.973 192.24C376.913 192.18 376.883 192.09 376.883 191.97C376.763 191.97 376.703 192.09 376.703 192.33C376.523 192.39 376.373 192.39 376.252 192.33C376.133 192.21 376.073 192.3 376.073 192.6C375.953 192.48 375.803 192.45 375.623 192.51C375.503 192.51 375.443 192.63 375.443 192.87C375.323 192.87 375.263 192.84 375.263 192.78C375.263 192.72 375.203 192.72 375.083 192.78C374.963 192.72 374.843 192.81 374.723 193.05C374.543 192.99 374.303 192.96 374.003 192.96C373.763 192.96 373.613 193.08 373.553 193.32C373.013 193.2 372.503 193.38 372.023 193.86C370.703 193.98 369.472 194.19 368.332 194.49C367.192 194.79 365.932 194.73 364.552 194.31C364.012 193.59 363.382 192.99 362.662 192.51C361.942 192.03 361.372 191.37 360.952 190.53C361.072 189.69 361.252 189.06 361.492 188.64C361.612 188.7 361.642 188.79 361.582 188.91C361.462 188.97 361.432 189.09 361.492 189.27C361.612 189.09 361.702 188.88 361.762 188.64C361.822 188.4 361.972 188.22 362.212 188.1C362.272 188.1 362.302 188.22 362.302 188.46C362.422 188.34 362.542 188.19 362.662 188.01C362.722 187.77 362.842 187.71 363.022 187.83C362.902 187.83 362.842 187.89 362.842 188.01C362.782 188.13 362.812 188.25 362.932 188.37C362.992 188.49 362.992 188.58 362.932 188.64C362.872 188.7 362.842 188.79 362.842 188.91C362.962 188.91 363.052 188.82 363.112 188.64C363.172 188.4 363.112 188.31 362.932 188.37C362.992 188.25 363.022 188.19 363.022 188.19C363.142 188.07 363.202 188.1 363.202 188.28C363.142 188.4 363.172 188.46 363.292 188.46C363.412 188.34 363.472 188.13 363.472 187.83C363.412 187.53 363.532 187.44 363.832 187.56C363.772 187.38 363.772 187.26 363.832 187.2C363.832 187.14 363.832 187.05 363.832 186.93C363.892 187.11 364.042 187.17 364.282 187.11C364.282 187.23 364.222 187.32 364.102 187.38C363.982 187.38 363.952 187.47 364.012 187.65C363.832 187.59 363.742 187.65 363.742 187.83C363.742 187.95 363.742 188.1 363.742 188.28C363.862 188.22 363.922 188.13 363.922 188.01C363.922 187.89 363.952 187.77 364.012 187.65H364.192V188.01C364.132 188.01 364.102 188.07 364.102 188.19C364.162 188.07 364.192 188.01 364.192 188.01C364.372 187.89 364.492 187.74 364.552 187.56C364.552 187.32 364.612 187.14 364.732 187.02C365.032 187.02 365.212 187.08 365.272 187.2C365.152 187.14 365.092 187.17 365.092 187.29C365.092 187.35 365.062 187.41 365.002 187.47C365.122 187.47 365.182 187.53 365.182 187.65C365.182 187.71 365.212 187.77 365.272 187.83C365.392 187.77 365.422 187.68 365.362 187.56C365.242 187.44 365.212 187.32 365.272 187.2C365.392 187.26 365.452 187.53 365.452 188.01C365.572 187.83 365.632 187.62 365.632 187.38C365.632 187.14 365.692 186.9 365.812 186.66C365.932 186.6 365.992 186.69 365.992 186.93C366.112 186.81 366.172 186.75 366.172 186.75C366.352 186.93 366.532 186.96 366.712 186.84C366.832 186.66 366.952 186.63 367.072 186.75C367.192 186.63 367.282 186.48 367.343 186.3C367.402 186.12 367.492 185.97 367.612 185.85C367.612 185.85 367.672 185.91 367.792 186.03C367.912 186.03 367.942 185.94 367.882 185.76C367.822 185.52 367.882 185.46 368.062 185.58C367.942 185.7 367.912 185.82 367.972 185.94C368.032 186 368.032 186.09 367.972 186.21C368.152 186.15 368.302 186 368.422 185.76C368.662 185.82 368.782 185.76 368.782 185.58C368.782 185.34 368.902 185.25 369.142 185.31C369.142 185.43 369.112 185.52 369.052 185.58C368.932 185.64 368.812 185.73 368.692 185.85C368.632 185.97 368.632 186.06 368.692 186.12C368.752 186.12 368.782 186.18 368.782 186.3C368.302 186.54 368.002 186.87 367.882 187.29C368.122 187.17 368.302 187.02 368.422 186.84C368.482 186.66 368.662 186.57 368.962 186.57C368.842 186.87 368.632 187.11 368.332 187.29C367.972 187.41 367.852 187.68 367.972 188.1C367.852 187.92 367.792 187.89 367.792 188.01C367.792 188.07 367.702 188.1 367.522 188.1C367.522 188.22 367.552 188.31 367.612 188.37C367.492 188.61 367.372 188.85 367.252 189.09C367.072 189.27 366.862 189.45 366.622 189.63C368.002 189.51 369.352 189.24 370.673 188.82C372.053 188.34 373.313 187.83 374.453 187.29C374.993 187.17 375.443 187.02 375.803 186.84C376.223 186.6 376.643 186.36 377.063 186.12H377.423C380.303 184.62 383.063 183 385.703 181.26C388.343 179.52 390.713 177.51 392.812 175.23C393.413 174.51 393.983 173.7 394.523 172.8C395.063 171.84 395.483 170.85 395.783 169.83C395.243 169.59 394.583 169.47 393.803 169.47C393.023 169.41 392.213 169.44 391.373 169.56C390.593 169.62 389.843 169.77 389.123 170.01C388.403 170.19 387.833 170.37 387.413 170.55C386.573 170.61 385.943 170.79 385.523 171.09C385.163 171.33 384.593 171.54 383.813 171.72C383.093 172.08 382.373 172.47 381.653 172.89C380.993 173.25 380.333 173.67 379.673 174.15C379.493 174.33 379.343 174.54 379.223 174.78C379.103 175.02 378.893 175.2 378.593 175.32C378.593 175.44 378.653 175.53 378.773 175.59C378.893 175.65 378.923 175.8 378.863 176.04C378.563 176.16 378.353 176.28 378.233 176.4C378.113 176.46 377.813 176.49 377.333 176.49C377.093 176.19 376.883 175.89 376.703 175.59C376.523 175.29 376.283 175.02 375.983 174.78C375.743 175.2 375.443 175.68 375.083 176.22C374.783 176.7 374.453 177.18 374.093 177.66C373.973 177.54 373.913 177.48 373.913 177.48C373.973 177.42 374.003 177.33 374.003 177.21C373.823 177.27 373.763 177.39 373.823 177.57C373.883 177.69 373.943 177.81 374.003 177.93C373.823 177.93 373.703 178.08 373.643 178.38C373.643 178.68 373.493 178.89 373.193 179.01C373.073 178.77 373.103 178.65 373.282 178.65C373.523 178.59 373.613 178.32 373.553 177.84C373.433 178.02 373.283 178.23 373.103 178.47C372.923 178.71 372.953 178.98 373.193 179.28C372.953 179.28 372.833 179.4 372.833 179.64C372.893 179.88 372.803 180.03 372.563 180.09C372.623 179.97 372.653 179.76 372.653 179.46C372.773 179.4 372.833 179.37 372.833 179.37C372.713 179.13 372.653 179.16 372.653 179.46C371.993 180.24 371.423 181.11 370.943 182.07C370.463 183.03 369.982 183.99 369.502 184.95C369.202 184.65 368.992 184.68 368.872 185.04C368.692 185.34 368.542 185.58 368.422 185.76C368.182 185.7 368.152 185.64 368.332 185.58C368.512 185.52 368.542 185.43 368.422 185.31C368.302 185.31 368.242 185.37 368.242 185.49C368.242 185.55 368.182 185.58 368.062 185.58C368.062 185.34 368.032 185.16 367.972 185.04C367.912 184.92 367.912 184.77 367.972 184.59C368.032 184.47 368.062 184.41 368.062 184.41C368.002 184.41 367.972 184.47 367.972 184.59C367.912 184.71 367.822 184.77 367.702 184.77C367.582 184.77 367.522 184.83 367.522 184.95C367.402 184.89 367.372 184.74 367.432 184.5C367.492 184.26 367.522 184.08 367.522 183.96C367.342 183.84 367.282 183.87 367.343 184.05C367.402 184.23 367.342 184.29 367.162 184.23V183.87C367.042 183.87 367.012 183.96 367.072 184.14C367.072 184.26 366.982 184.32 366.802 184.32V183.6C366.682 183.6 366.652 183.63 366.712 183.69C366.712 183.75 366.682 183.81 366.622 183.87C366.502 183.75 366.442 183.66 366.442 183.6C366.442 183.48 366.352 183.48 366.172 183.6C366.172 183.12 366.202 182.85 366.262 182.79C366.082 182.67 366.022 182.7 366.082 182.88C366.142 183.06 366.082 183.12 365.902 183.06C365.842 182.76 365.812 182.58 365.812 182.52C365.812 182.4 365.752 182.22 365.632 181.98C366.172 180.06 366.952 178.35 367.972 176.85C368.932 175.35 369.922 173.85 370.943 172.35C370.883 171.93 370.733 171.66 370.493 171.54C370.252 171.36 370.132 171.06 370.132 170.64C370.493 170.34 370.913 170.04 371.393 169.74C371.933 169.44 372.533 169.23 373.193 169.11C374.033 168.15 374.783 167.19 375.443 166.23C376.163 165.21 376.883 164.19 377.603 163.17C377.543 162.69 377.303 162.36 376.883 162.18C376.523 162 376.403 161.67 376.523 161.19C376.463 161.07 376.403 161.07 376.343 161.19C376.343 161.31 376.283 161.34 376.163 161.28C376.223 161.1 376.223 161.01 376.163 161.01C376.163 160.95 376.163 160.86 376.163 160.74C376.043 160.74 375.983 160.77 375.983 160.83C376.043 160.89 376.013 160.92 375.893 160.92C375.893 159.96 375.803 159.36 375.623 159.12C375.743 158.94 375.923 158.7 376.163 158.4C376.403 158.04 376.613 157.95 376.793 158.13C376.853 158.07 376.883 157.95 376.883 157.77C378.023 157.05 379.133 156.45 380.213 155.97C381.293 155.49 382.403 155.01 383.542 154.53C383.542 154.59 383.542 154.62 383.542 154.62C383.603 154.62 383.633 154.68 383.633 154.8C383.753 154.8 383.843 154.71 383.903 154.53C384.023 154.35 384.083 154.38 384.083 154.62C384.143 154.56 384.173 154.5 384.173 154.44C384.173 154.32 384.203 154.23 384.263 154.17C386.183 153.75 388.163 153.36 390.203 153C392.243 152.58 394.313 152.55 396.413 152.91C397.613 153.33 398.513 154.02 399.113 154.98C399.713 155.94 400.223 157.02 400.643 158.22C400.643 158.4 400.613 158.55 400.553 158.67C400.493 158.79 400.433 158.94 400.373 159.12C400.193 159.18 400.133 159.12 400.193 158.94C400.253 158.76 400.223 158.7 400.103 158.76C399.443 159.96 398.453 161.04 397.133 162C395.873 162.9 394.643 163.8 393.442 164.7C394.223 164.76 394.853 164.94 395.333 165.24C395.873 165.48 396.473 165.72 397.133 165.96C397.853 166.62 398.573 167.34 399.293 168.12C400.013 168.9 400.433 169.86 400.553 171C400.673 172.74 400.313 174.27 399.473 175.59C398.633 176.91 397.763 178.08 396.863 179.1H396.772ZM386.513 159.03V159.66C386.033 160.32 385.613 161.01 385.253 161.73C384.893 162.39 384.473 163.05 383.993 163.71C385.313 163.05 386.663 162.33 388.043 161.55C389.423 160.71 390.713 159.87 391.913 159.03C392.153 158.85 392.453 158.64 392.812 158.4C393.232 158.16 393.383 157.98 393.263 157.86C392.123 157.98 391.013 158.13 389.933 158.31C388.913 158.49 387.773 158.73 386.513 159.03ZM400.373 158.58C400.253 158.52 400.193 158.46 400.193 158.4C400.253 158.34 400.253 158.31 400.193 158.31C400.073 158.37 400.043 158.46 400.103 158.58C400.223 158.7 400.313 158.7 400.373 158.58ZM375.173 175.77C375.233 175.89 375.263 175.89 375.263 175.77C375.263 175.59 375.233 175.59 375.173 175.77ZM374.723 176.22H374.903V176.04H374.723V176.22ZM374.093 177.39C374.273 177.33 374.363 177.21 374.363 177.03C374.423 176.85 374.393 176.7 374.273 176.58C374.273 176.76 374.213 176.88 374.093 176.94C374.033 177 374.033 177.15 374.093 177.39ZM372.833 179.19C372.833 179.07 372.863 179.01 372.923 179.01C372.983 178.95 372.953 178.92 372.833 178.92C372.833 178.98 372.803 179.04 372.743 179.1C372.683 179.1 372.713 179.13 372.833 179.19ZM367.792 186.3C367.672 186.3 367.672 186.36 367.792 186.48C367.852 186.54 367.852 186.48 367.792 186.3C367.852 186.24 367.882 186.21 367.882 186.21C367.822 186.15 367.792 186.18 367.792 186.3ZM368.152 186.3C368.212 186.42 368.242 186.42 368.242 186.3C368.242 186.12 368.212 186.12 368.152 186.3ZM364.642 187.83C364.762 187.83 364.852 187.77 364.912 187.65C364.972 187.47 364.942 187.38 364.822 187.38C364.822 187.5 364.792 187.59 364.732 187.65C364.672 187.65 364.642 187.71 364.642 187.83ZM365.992 187.47C366.052 187.59 366.082 187.59 366.082 187.47C366.082 187.29 366.052 187.29 365.992 187.47ZM367.343 187.74C367.402 187.86 367.432 187.86 367.432 187.74C367.432 187.56 367.402 187.56 367.343 187.74ZM364.462 188.46V188.73C364.582 188.79 364.642 188.73 364.642 188.55C364.642 188.37 364.582 188.34 364.462 188.46C364.402 188.34 364.402 188.28 364.462 188.28C364.522 188.22 364.552 188.16 364.552 188.1C364.372 188.04 364.282 188.16 364.282 188.46H364.462ZM364.822 188.46C364.822 188.4 364.852 188.34 364.912 188.28C364.972 188.16 364.942 188.1 364.822 188.1C364.762 188.16 364.732 188.22 364.732 188.28C364.732 188.4 364.762 188.46 364.822 188.46ZM365.272 188.28C365.332 188.4 365.362 188.4 365.362 188.28C365.362 188.1 365.332 188.1 365.272 188.28ZM367.343 188.37C367.402 188.49 367.432 188.49 367.432 188.37C367.432 188.19 367.402 188.19 367.343 188.37ZM363.652 188.73C363.652 188.43 363.592 188.31 363.472 188.37C363.472 188.49 363.532 188.61 363.652 188.73ZM363.832 188.46C363.892 188.58 363.922 188.58 363.922 188.46C363.922 188.28 363.892 188.28 363.832 188.46ZM362.212 188.91C362.152 188.79 362.182 188.7 362.302 188.64C362.362 188.58 362.332 188.55 362.212 188.55C362.152 188.61 362.122 188.67 362.122 188.73C362.122 188.85 362.152 188.91 362.212 188.91ZM363.742 188.91C363.802 189.03 363.832 189.03 363.832 188.91C363.832 188.73 363.802 188.73 363.742 188.91ZM364.102 189.45C363.982 189.45 363.982 189.51 364.102 189.63C364.162 189.69 364.162 189.63 364.102 189.45C364.222 189.33 364.252 189.24 364.192 189.18C364.072 189.06 364.042 189.15 364.102 189.45ZM372.563 180.09C372.563 180.27 372.503 180.39 372.383 180.45C372.383 180.21 372.443 180.09 372.563 180.09ZM365.812 186.66C365.692 186.72 365.632 186.69 365.632 186.57C365.632 186.39 365.632 186.27 365.632 186.21C365.752 186.21 365.872 186.15 365.992 186.03C366.052 185.91 366.112 185.91 366.172 186.03C366.112 186.15 366.052 186.24 365.992 186.3C365.872 186.36 365.812 186.48 365.812 186.66ZM368.962 186.12C368.962 186.06 369.022 186.03 369.142 186.03C369.082 186.03 369.022 186.06 368.962 186.12ZM364.192 186.21C364.192 186.15 364.252 186.12 364.373 186.12C364.312 186.12 364.252 186.15 364.192 186.21ZM366.892 186.21C366.892 185.97 366.892 185.97 366.892 186.21C366.832 186.45 366.832 186.45 366.892 186.21ZM366.622 186.39C366.742 186.33 366.802 186.39 366.802 186.57C366.742 186.51 366.712 186.54 366.712 186.66C366.652 186.6 366.622 186.51 366.622 186.39ZM366.172 186.75C366.052 186.63 366.052 186.54 366.172 186.48C366.232 186.36 366.232 186.45 366.172 186.75ZM363.292 186.66C363.292 186.54 363.322 186.51 363.382 186.57C363.382 186.57 363.352 186.6 363.292 186.66ZM363.202 186.75C363.202 186.63 363.232 186.6 363.292 186.66C363.292 186.72 363.262 186.75 363.202 186.75ZM363.922 186.66H364.102V186.84H363.922V186.66ZM365.182 186.66C365.302 186.66 365.332 186.72 365.272 186.84C365.212 186.9 365.182 186.96 365.182 187.02C365.122 187.02 365.092 186.96 365.092 186.84C365.092 186.78 365.122 186.72 365.182 186.66ZM363.202 186.75C363.202 186.93 363.172 186.99 363.112 186.93C362.992 186.81 363.022 186.75 363.202 186.75ZM365.452 186.93C365.452 186.69 365.452 186.69 365.452 186.93C365.392 187.17 365.392 187.17 365.452 186.93ZM362.932 187.02C363.052 186.96 363.112 186.99 363.112 187.11C363.052 187.17 363.082 187.23 363.202 187.29C363.082 187.29 363.022 187.32 363.022 187.38C362.962 187.44 362.872 187.5 362.752 187.56C362.752 187.44 362.722 187.38 362.662 187.38C362.662 187.26 362.722 187.2 362.842 187.2C362.962 187.2 362.992 187.14 362.932 187.02ZM363.472 187.29C363.532 187.11 363.562 187.11 363.562 187.29C363.562 187.41 363.532 187.41 363.472 187.29ZM363.112 187.65C363.112 187.59 363.172 187.56 363.292 187.56C363.232 187.56 363.172 187.59 363.112 187.65ZM364.192 187.65C364.192 187.53 364.222 187.5 364.282 187.56C364.282 187.56 364.252 187.59 364.192 187.65ZM362.392 187.83C362.452 187.65 362.482 187.65 362.482 187.83C362.482 187.95 362.452 187.95 362.392 187.83ZM367.612 188.37C367.612 188.25 367.642 188.19 367.702 188.19C367.762 188.13 367.792 188.16 367.792 188.28C367.732 188.34 367.672 188.37 367.612 188.37ZM438.765 161.46C438.465 161.88 438.225 162.33 438.045 162.81C437.865 163.23 437.535 163.56 437.055 163.8C436.875 163.74 436.875 163.62 437.055 163.44C436.875 163.38 436.785 163.41 436.785 163.53C436.845 163.65 436.815 163.71 436.695 163.71C436.695 163.83 436.725 163.89 436.785 163.89C436.905 163.89 436.935 163.95 436.875 164.07C436.575 164.61 436.245 165.12 435.885 165.6C435.585 166.08 435.195 166.53 434.715 166.95C434.655 167.61 434.445 168.09 434.085 168.39C433.785 168.69 433.515 169.08 433.275 169.56C433.095 169.56 433.005 169.53 433.005 169.47C432.885 169.59 432.915 169.68 433.095 169.74C433.035 169.86 432.975 169.92 432.915 169.92C432.915 169.86 432.855 169.83 432.735 169.83C432.615 169.95 432.585 170.04 432.645 170.1C432.765 170.16 432.795 170.28 432.735 170.46C432.435 170.52 432.225 170.7 432.105 171C431.985 171.24 431.805 171.33 431.565 171.27C431.625 171.39 431.625 171.51 431.565 171.63C431.505 171.69 431.505 171.81 431.565 171.99C430.305 173.55 429.045 175.11 427.785 176.67C426.525 178.17 425.295 179.73 424.095 181.35C423.375 181.95 422.685 182.64 422.025 183.42C421.425 184.14 420.795 184.83 420.135 185.49C419.475 186.15 418.725 186.75 417.885 187.29C417.105 187.83 416.145 188.19 415.005 188.37C414.765 188.37 414.585 188.31 414.465 188.19C414.345 188.31 414.195 188.34 414.015 188.28C413.895 188.22 413.805 188.25 413.745 188.37C412.665 188.43 411.585 188.31 410.505 188.01C409.425 187.65 408.465 187.32 407.625 187.02C407.565 186.84 407.505 186.72 407.445 186.66C407.325 186.54 407.235 186.42 407.175 186.3C406.875 185.46 406.725 184.68 406.725 183.96C406.725 183.24 406.755 182.46 406.815 181.62C407.415 178.2 408.255 174.96 409.335 171.9C410.415 168.78 411.855 165.9 413.655 163.26C413.955 163.14 414.225 162.99 414.465 162.81C414.705 162.63 414.975 162.48 415.275 162.36C415.395 162.36 415.455 162.39 415.455 162.45C415.515 162.51 415.605 162.54 415.725 162.54C415.845 162.54 415.905 162.48 415.905 162.36C415.905 162.24 415.965 162.18 416.085 162.18C416.265 162.18 416.385 162.27 416.445 162.45C416.565 162.57 416.775 162.57 417.075 162.45C417.375 162.81 417.765 163.05 418.245 163.17C418.725 163.29 419.115 163.56 419.415 163.98C420.255 163.98 420.825 164.31 421.125 164.97C420.945 164.97 420.915 165.03 421.035 165.15C420.315 165.33 419.745 165.66 419.325 166.14C418.905 166.62 418.545 167.16 418.245 167.76C417.945 168.36 417.675 168.99 417.435 169.65C417.195 170.31 416.895 170.91 416.535 171.45C416.595 172.11 416.445 172.65 416.085 173.07C415.785 173.43 415.635 173.85 415.635 174.33H415.365C415.425 174.81 415.335 175.32 415.095 175.86C414.915 176.34 414.765 176.82 414.645 177.3C414.465 177.36 414.345 177.36 414.285 177.3C414.345 177.54 414.375 177.72 414.375 177.84C414.435 177.9 414.435 178.08 414.375 178.38C414.315 178.38 414.225 178.32 414.105 178.2C414.225 178.5 414.225 178.8 414.105 179.1C413.985 179.34 413.925 179.67 413.925 180.09C413.685 180.09 413.565 180.12 413.565 180.18C413.565 180.36 413.595 180.39 413.655 180.27C413.775 180.15 413.835 180.15 413.835 180.27C413.895 180.39 413.865 180.45 413.745 180.45C413.625 180.45 413.535 180.45 413.475 180.45C413.715 180.51 413.805 180.66 413.745 180.9C413.685 181.14 413.625 181.32 413.565 181.44C413.445 181.44 413.385 181.41 413.385 181.35C413.445 181.29 413.445 181.26 413.385 181.26C413.445 181.5 413.415 181.83 413.295 182.25C413.235 182.67 413.175 183 413.115 183.24C413.715 183 414.165 182.64 414.465 182.16C414.765 181.68 415.185 181.29 415.725 180.99C417.585 178.59 419.505 176.25 421.485 173.97C423.465 171.69 425.325 169.29 427.065 166.77C428.325 165.39 429.495 163.92 430.575 162.36C431.655 160.8 432.855 159.33 434.175 157.95C434.955 156.69 435.855 155.55 436.875 154.53C437.895 153.51 438.855 152.4 439.755 151.2C440.115 151.08 440.415 150.87 440.655 150.57C440.895 150.27 441.165 150.03 441.465 149.85C441.705 149.97 441.855 150.03 441.915 150.03C441.975 150.03 442.125 149.97 442.365 149.85C442.485 150.09 442.485 150.3 442.365 150.48C442.245 150.6 442.155 150.75 442.095 150.93C442.215 150.99 442.335 150.9 442.455 150.66C442.575 150.42 442.695 150.24 442.815 150.12C442.935 150.24 442.965 150.36 442.905 150.48C442.905 150.54 442.875 150.63 442.815 150.75C442.995 150.69 443.115 150.6 443.175 150.48C443.295 150.36 443.415 150.24 443.535 150.12C443.655 150.24 443.685 150.42 443.625 150.66C443.565 150.84 443.685 150.84 443.985 150.66C443.985 150.84 443.925 150.96 443.805 151.02C443.685 151.02 443.625 151.08 443.625 151.2C443.745 151.38 443.835 151.41 443.895 151.29C443.955 151.17 444.045 151.17 444.165 151.29C443.985 151.41 443.805 151.59 443.625 151.83C443.505 152.01 443.355 152.16 443.175 152.28C443.175 152.34 443.295 152.37 443.535 152.37C443.535 152.61 443.445 152.76 443.265 152.82C443.145 152.88 443.085 153 443.085 153.18C443.085 153.36 443.115 153.42 443.175 153.36C443.235 153.24 443.295 153.24 443.355 153.36C443.235 153.84 443.025 154.23 442.725 154.53C442.485 154.77 442.245 155.04 442.005 155.34C442.125 155.82 442.005 156.24 441.645 156.6C441.285 156.96 440.955 157.32 440.655 157.68C440.655 157.8 440.655 157.92 440.655 158.04C440.715 158.1 440.745 158.19 440.745 158.31C440.625 158.37 440.505 158.43 440.385 158.49C440.325 158.55 440.235 158.58 440.115 158.58C440.235 159.06 440.145 159.42 439.845 159.66C439.605 159.9 439.395 160.17 439.215 160.47C439.155 160.59 439.185 160.62 439.305 160.56C439.485 160.5 439.545 160.56 439.485 160.74C439.185 160.62 438.945 160.71 438.765 161.01C438.645 161.31 438.465 161.52 438.225 161.64C438.345 161.88 438.435 161.91 438.495 161.73C438.555 161.55 438.645 161.46 438.765 161.46ZM440.565 158.04C440.565 157.98 440.535 157.95 440.475 157.95C440.415 157.95 440.385 157.98 440.385 158.04C440.505 158.04 440.565 158.04 440.565 158.04ZM440.115 158.4C440.295 158.4 440.385 158.34 440.385 158.22H440.205C440.205 158.28 440.175 158.31 440.115 158.31C440.115 158.31 440.115 158.34 440.115 158.4ZM438.855 160.65C438.735 160.65 438.675 160.68 438.675 160.74H438.765C438.825 160.74 438.855 160.71 438.855 160.65ZM435.525 165.33C435.645 165.33 435.765 165.21 435.885 164.97C435.645 164.97 435.525 165.09 435.525 165.33ZM443.445 153H443.715C443.715 153.12 443.685 153.18 443.625 153.18C443.625 153.18 443.625 153.21 443.625 153.27H443.445V153ZM441.555 157.41C441.555 157.53 441.495 157.62 441.375 157.68C441.315 157.68 441.255 157.74 441.195 157.86C441.075 157.8 441.075 157.71 441.195 157.59C441.315 157.47 441.435 157.41 441.555 157.41ZM415.905 176.31C415.785 176.55 415.605 176.64 415.365 176.58C415.305 176.46 415.335 176.4 415.455 176.4C415.635 176.4 415.785 176.37 415.905 176.31Z" fill="url(#paint1_linear_1_5)"/>
<defs>
<linearGradient id="paint0_linear_1_5" x1="293" y1="0" x2="293" y2="198" gradientUnits="userSpaceOnUse">
<stop stop-color="white"/>
<stop offset="1" stop-color="#999999"/>
</linearGradient>
<linearGradient id="paint1_linear_1_5" x1="306" y1="133" x2="306" y2="198" gradientUnits="userSpaceOnUse">
<stop offset="0.176667" stop-color="#EA1D22"/>
<stop offset="1" stop-color="#841013"/>
</linearGradient>
</defs>
</svg>
